<?xml version="1.0" encoding="utf-8"?>
<!-- Generator: Adobe Illustrator 18.0.0, SVG Export Plug-In . SVG Version: 6.00 Build 0)  -->
<!DOCTYPE svg PUBLIC "-//W3C//DTD SVG 1.1//EN" "http://www.w3.org/Graphics/SVG/1.1/DTD/svg11.dtd">
<svg version="1.1" id="Layer_1" xmlns="http://www.w3.org/2000/svg" xmlns:xlink="http://www.w3.org/1999/xlink" x="0px" y="0px"
	 viewBox="0 0 18 12.2" enable-background="new 0 0 18 12.2" xml:space="preserve">
<g id="XMLID_374_">
	<path id="XMLID_320_" fill="#343D5A" d="M17.5,5.4c-0.2,0-0.3-0.1-0.4-0.2C15.4,2.5,12.5,1,9,1C5.5,1,2.7,2.5,0.9,5.2
		C0.8,5.4,0.5,5.5,0.2,5.3C0,5.2-0.1,4.9,0.1,4.6C2,1.6,5.2,0,9,0c3.8,0,7,1.6,8.9,4.6c0.2,0.2,0.1,0.5-0.1,0.7
		C17.7,5.4,17.6,5.4,17.5,5.4z"/>
	<path id="XMLID_376_" fill="#343D5A" d="M14.9,7.5c-0.2,0-0.3-0.1-0.4-0.2C13.3,5.4,11.4,4.4,9,4.4c-2.4,0-4.3,1-5.5,2.8
		C3.4,7.5,3.1,7.5,2.8,7.4C2.6,7.3,2.5,6.9,2.7,6.7C4,4.6,6.3,3.4,9,3.4c2.7,0,5,1.2,6.3,3.3c0.1,0.2,0.1,0.5-0.1,0.7
		C15.1,7.5,15,7.5,14.9,7.5z"/>
	<path id="XMLID_378_" fill="#343D5A" d="M5.6,9.6c-0.1,0-0.2,0-0.3-0.1C5.1,9.3,5,9,5.1,8.8c0.8-1.3,2.2-2,3.9-2c1.6,0,3,0.7,3.9,2
		C13.1,9,13,9.3,12.8,9.5c-0.2,0.2-0.5,0.1-0.7-0.1c-0.7-1-1.7-1.6-3-1.6c-1.3,0-2.4,0.6-3,1.6C5.9,9.5,5.7,9.6,5.6,9.6z"/>
	<path id="XMLID_301_" fill="#343D5A" d="M8.9,12.2c-0.8,0-1.4-0.6-1.4-1.4s0.6-1.4,1.4-1.4c0.8,0,1.4,0.6,1.4,1.4
		S9.7,12.2,8.9,12.2z"/>
</g>
</svg>
