<?xml version="1.0" encoding="utf-8"?>
<!-- Generator: Adobe Illustrator 18.0.0, SVG Export Plug-In . SVG Version: 6.00 Build 0)  -->
<!DOCTYPE svg PUBLIC "-//W3C//DTD SVG 1.1//EN" "http://www.w3.org/Graphics/SVG/1.1/DTD/svg11.dtd">
<svg version="1.1" id="Layer_1" xmlns="http://www.w3.org/2000/svg" xmlns:xlink="http://www.w3.org/1999/xlink" x="0px" y="0px"
	 viewBox="0 0 14.5 32" enable-background="new 0 0 14.5 32" xml:space="preserve">
<g id="XMLID_1819_">
	<g>
		<path id="XMLID_31_" fill="#44B0E4" d="M11.2,18.6c-0.1,0-0.2-0.1-0.2-0.3V3.8C11,1.7,9.3,0,7.3,0C5.2,0,3.5,1.7,3.5,3.8v14.6
			c0,0.1-0.1,0.2-0.2,0.2C1.3,19.9,0,22.2,0,24.7c0,4,3.3,7.3,7.3,7.3c4,0,7.3-3.3,7.3-7.3C14.5,22.2,13.3,19.9,11.2,18.6z
			 M7.3,30.7c-3.3,0-5.9-2.7-5.9-5.9c0-2.2,1.2-4.2,3.2-5.2l0.1,0c0,0,0.3-0.1,0.3-0.5c0-3.8,0-15.1,0-15.1c0-1.3,1.1-2.4,2.4-2.4
			c1.3,0,2.4,1.1,2.4,2.4c0,0,0,11.4,0,15.1c0,0.4,0.3,0.5,0.3,0.5l0.1,0c1.9,1,3.2,3,3.2,5.2C13.2,28,10.5,30.7,7.3,30.7z"/>
		<path id="XMLID_30_" fill="#C2E6F1" d="M8.4,21.9c-0.1,0-0.2-0.1-0.2-0.3v-15c0-0.5-0.4-1-1-1s-1,0.4-1,1v15
			c0,0.2-0.1,0.3-0.2,0.3C4.8,22.4,4,23.6,4,25c0,1.8,1.5,3.3,3.3,3.3s3.3-1.5,3.3-3.3C10.6,23.6,9.7,22.4,8.4,21.9z"/>
	</g>
</g>
</svg>
