
<svg xmlns="http://www.w3.org/2000/svg" viewBox="0 0 490 490"><path d="M438.7 104.3L337.4 3C337.3 3 334.8 0 329.7 0H58.5c-5.6 0-10.2 4.6-10.2 10.2v469.6c0 5.6 4.6 10.2 10.2 10.2h373.1c5.6 0 10.2-4.6 10.2-10.2V111.6C441.7 109.7 441.3 107 438.7 104.3zM406.9 101.4h-66.6l0-66.6L406.9 101.4zM421.3 469.6H68.6V20.4h251.3 0l0 91.2c0 5.6 4.6 10.2 10.2 10.2h91.2l0 0V469.6z"/><polygon points="117 271.6 188.8 305.4 188.8 283.6 141.4 261.1 188.8 239.3 188.8 217.6 117 251.4 "/><polygon points="203.7 336.3 224.5 336.3 286.5 200.9 265.5 200.9 "/><polygon points="301.2 239.3 348.6 261.1 301.2 283.6 301.2 305.4 373 271.6 373 251.4 301.2 217.6 "/></svg>
