<svg xmlns="http://www.w3.org/2000/svg" viewBox="0 0 490 490"><path d="M438.7 104.3L337.4 3c-0.1-0.1-2.5-3-7.6-3H58.5c-5.6 0-10.2 4.6-10.2 10.2v469.6c0 5.6 4.6 10.2 10.2 10.2h373.1c5.6 0 10.2-4.6 10.2-10.2V111.6C441.7 109.7 441.3 107 438.7 104.3zM406.9 101.4h-66.6l0-66.6L406.9 101.4zM421.3 469.6H68.6V20.4h251.3l0 0 0 91.2c0 5.6 4.6 10.2 10.2 10.2h91.2l0 0L421.3 469.6 421.3 469.6z"/><path d="M162.4 217.3h-49.2v-53.3h49.2V217.3zM121.2 209.3h33.1v-37.2h-33.1V209.3z"/><path d="M162.5 318.6h-49.3v-53.5h49.3V318.6zM121.2 310.5h33.2v-37.3h-33.2V310.5z"/><path d="M162.5 419.7h-49.3v-53.5h49.3V419.7zM121.2 411.7h33.2v-37.3h-33.2V411.7z"/><rect x="208.9" y="184.7" width="168" height="12"/><rect x="208.9" y="285.9" width="168" height="12"/><rect x="208.9" y="387" width="168" height="12"/></svg>
