<svg id="Layer_1" xmlns="http://www.w3.org/2000/svg" viewBox="0 0 235 180"><path class="st0" d="M212.8 67.9c-1.5-1.5-4-1.5-5.6 0-1.5 1.5-1.5 4 0 5.6l12.6 12.6H149.1V60.5c.3.1.6.2.9.2 1 0 2.1-.4 2.8-1.2 1.5-1.5 1.5-4 0-5.6-1.5-1.5-4-1.5-5.6 0-.6.6-1 1.5-1.1 2.3h-14.3c-2.2 0-3.9 1.8-3.9 3.9 0 2.2 1.8 3.9 3.9 3.9h9.3v49.1h-9.3c-2.2 0-3.9 1.8-3.9 3.9s1.8 3.9 3.9 3.9h10.3l13.9 13.9c.8.8 1.8 1.2 2.8 1.2 1 0 2-.4 2.8-1.2 1.5-1.5 1.5-4 0-5.6l-12.5-12.5V93.9h70.6c.1 0 .3-.1.4-.1l-12.9 12.9c-1.5 1.5-1.5 4 0 5.6.8.8 1.8 1.2 2.8 1.2s2-.4 2.8-1.2L235 90.1l-22.2-22.2zm10.8 22l.2.2-.3.3c.1-.2.1-.3.1-.5zM169 14.3h23.5v23.6c0 2.2 1.8 3.9 3.9 3.9 2.2 0 3.9-1.8 3.9-3.9V6.5h-31.4c-2.2 0-3.9 1.8-3.9 3.9s1.8 3.9 4 3.9zM196.3 138.3c-2.2 0-3.9 1.8-3.9 3.9v17.7l-19.5-19.5c-1.5-1.5-4-1.5-5.6 0-1.5 1.5-1.5 4 0 5.6l19.5 19.5c.1.1.2.1.3.2h-18.2c-2.2 0-3.9 1.8-3.9 3.9s1.8 3.9 3.9 3.9h31.4v-31.4c0-2-1.8-3.8-4-3.8zm-4.3 27.5c.1-.1.2-.1.3-.2v-.1.3h-.3zM42.5 33.3c3.5 0 6.8-1.1 9.5-3l7.8 7.8c.8.8 1.8 1.2 2.8 1.2 1 0 2-.4 2.8-1.2 1.5-1.5 1.5-4 0-5.6l-8.1-8.1c1.2-2.3 2-4.9 2-7.7C59.3 7.5 51.8 0 42.6 0S25.9 7.5 25.9 16.7c-.1 9.1 7.4 16.6 16.6 16.6zm0-25.5c4.9 0 8.8 3.9 8.8 8.8s-3.9 8.8-8.8 8.8-8.8-3.9-8.8-8.8c0-4.8 4-8.8 8.8-8.8zM42.5 146.6c-9.2 0-16.7 7.5-16.7 16.7S33.3 180 42.5 180s16.7-7.5 16.7-16.7-7.5-16.7-16.7-16.7zm0 25.5c-4.9 0-8.8-3.9-8.8-8.8s3.9-8.8 8.8-8.8 8.8 3.9 8.8 8.8-3.9 8.8-8.8 8.8zM158.4 52.3c1 0 2.1-.4 2.8-1.1 1.5-1.6 1.5-4.1 0-5.6s-4-1.5-5.6 0c-1.5 1.5-1.5 4 0 5.6.8.7 1.8 1.1 2.8 1.1z"/><path class="st0" d="M180.7 20.4c-1.5 1.5-1.5 4 0 5.6.8.8 1.8 1.1 2.8 1.1s2-.4 2.8-1.1c1.5-1.5 1.5-4 0-5.6-1.5-1.5-4.1-1.5-5.6 0zM166.8 43.9c1 0 2-.4 2.8-1.2 1.5-1.5 1.5-4 0-5.6-1.5-1.5-4-1.5-5.6 0-1.5 1.5-1.5 4 0 5.6.7.8 1.8 1.2 2.8 1.2zM172.3 28.8c-1.5 1.5-1.5 4 0 5.6.8.8 1.8 1.1 2.8 1.1s2-.4 2.8-1.1c1.5-1.5 1.5-4 0-5.6-1.5-1.6-4-1.6-5.6 0zM101.6 113.1h-9.3V64h9.3c2.2 0 3.9-1.8 3.9-3.9 0-2.2-1.8-3.9-3.9-3.9H89L76.5 43.7c-1.5-1.5-4-1.5-5.6 0s-1.5 4 0 5.6l13.4 13.4v21.9H32.4C30.2 78 24 73.2 16.7 73.2 7.5 73.2 0 80.7 0 89.9s7.5 16.7 16.7 16.7c8.3 0 15.2-6.1 16.4-14.1h51.2v26.2c-1.5-.9-3.5-.8-4.8.5-1.5 1.6-1.5 4.1 0 5.6.8.8 1.8 1.1 2.8 1.1s2-.4 2.8-1.1c1.1-1 1.4-2.5 1-3.9h15.5c2.2 0 3.9-1.8 3.9-3.9s-1.7-3.9-3.9-3.9zM16.8 98.8C11.9 98.8 8 94.9 8 90s3.9-8.8 8.8-8.8 8.8 3.9 8.8 8.8c0 4.8-4 8.8-8.8 8.8z"/><path class="st0" d="M100 105.4h33.6V71.8H100v33.6zm7.9-25.7h17.8v17.8h-17.8V79.7zM62.8 136c-1.5 1.5-1.5 4 0 5.6.7.8 1.8 1.2 2.8 1.2 1 0 2-.4 2.8-1.2 1.5-1.5 1.5-4 0-5.6-1.5-1.5-4-1.5-5.6 0zM54.5 144.4c-1.5 1.5-1.5 4 0 5.6.7.8 1.8 1.2 2.8 1.2 1 0 2.1-.4 2.8-1.2 1.5-1.5 1.5-4 0-5.6-1.5-1.6-4.1-1.5-5.6 0zM71.2 127.7c-1.5 1.5-1.5 4 0 5.6.7.8 1.8 1.1 2.8 1.1 1 0 2-.4 2.8-1.1 1.5-1.5 1.5-4 0-5.6-1.6-1.6-4-1.6-5.6 0z"/></svg>
