<?xml version="1.0" encoding="utf-8"?>
<!-- Generator: Adobe Illustrator 18.0.0, SVG Export Plug-In . SVG Version: 6.00 Build 0)  -->
<!DOCTYPE svg PUBLIC "-//W3C//DTD SVG 1.1//EN" "http://www.w3.org/Graphics/SVG/1.1/DTD/svg11.dtd">
<svg version="1.1" id="Layer_1" xmlns="http://www.w3.org/2000/svg" xmlns:xlink="http://www.w3.org/1999/xlink" x="0px" y="0px"
	 viewBox="0 0 34.6 34.6" enable-background="new 0 0 34.6 34.6" xml:space="preserve">
<g id="XMLID_249_" opacity="0.75">
	<g id="XMLID_264_">
		<path id="XMLID_2016_" d="M17.3,24.3c-3.9,0-7-3.1-7-7s3.1-7,7-7s7,3.1,7,7S21.2,24.3,17.3,24.3z M17.3,11.3
			c-3.3,0-6,2.7-6,6c0,3.3,2.7,6,6,6s6-2.7,6-6C23.3,14,20.6,11.3,17.3,11.3z"/>
		<path id="XMLID_2013_" d="M19.6,34.6H15c-0.2,0-0.4-0.2-0.5-0.4l-0.9-3.7c-1.1-0.3-2.1-0.7-3.1-1.3l-3.3,2
			c-0.2,0.1-0.5,0.1-0.6-0.1L3.5,28c-0.2-0.2-0.2-0.4-0.1-0.6l2-3.3c-0.6-1-1-2-1.3-3.1l-3.7-0.9C0.2,20,0,19.8,0,19.6V15
			c0-0.2,0.2-0.4,0.4-0.5l3.7-0.9c0.3-1.1,0.7-2.1,1.3-3.1l-2-3.3C3.3,7.1,3.3,6.9,3.5,6.7l3.2-3.2c0.2-0.2,0.4-0.2,0.6-0.1l3.3,2
			c1-0.6,2-1,3.1-1.3l0.9-3.7C14.6,0.2,14.8,0,15,0h4.6c0.2,0,0.4,0.2,0.5,0.4L21,4.1c1.1,0.3,2.1,0.7,3.1,1.3l3.3-2
			c0.2-0.1,0.5-0.1,0.6,0.1l3.2,3.2c0.2,0.2,0.2,0.4,0.1,0.6l-2,3.3c0.6,1,1,2,1.3,3.1l3.7,0.9c0.2,0.1,0.4,0.3,0.4,0.5v4.6
			c0,0.2-0.2,0.4-0.4,0.5L30.5,21c-0.3,1.1-0.7,2.1-1.3,3.1l2,3.3c0.1,0.2,0.1,0.5-0.1,0.6L28,31.2c-0.2,0.2-0.4,0.2-0.6,0.1l-3.3-2
			c-1,0.6-2,1-3.1,1.3l-0.9,3.7C20,34.5,19.8,34.6,19.6,34.6z M15.4,33.6h3.8L20,30c0-0.2,0.2-0.3,0.4-0.4c1.2-0.3,2.3-0.8,3.4-1.4
			c0.2-0.1,0.4-0.1,0.5,0l3.2,2l2.7-2.7l-2-3.2c-0.1-0.2-0.1-0.4,0-0.5c0.6-1.1,1.1-2.2,1.4-3.4c0-0.2,0.2-0.3,0.4-0.4l3.7-0.8v-3.8
			L30,14.6c-0.2,0-0.3-0.2-0.4-0.4c-0.3-1.2-0.8-2.3-1.4-3.4c-0.1-0.2-0.1-0.4,0-0.5l2-3.2l-2.7-2.7l-3.2,2c-0.2,0.1-0.4,0.1-0.5,0
			c-1.1-0.6-2.2-1.1-3.4-1.4c-0.2,0-0.3-0.2-0.4-0.4L19.2,1h-3.8l-0.8,3.6c0,0.2-0.2,0.3-0.4,0.4c-1.2,0.3-2.3,0.8-3.4,1.4
			c-0.2,0.1-0.4,0.1-0.5,0l-3.2-2L4.5,7.1l2,3.2c0.1,0.2,0.1,0.4,0,0.5C5.8,11.9,5.3,13,5,14.2c0,0.2-0.2,0.3-0.4,0.4L1,15.4v3.8
			L4.7,20c0.2,0,0.3,0.2,0.4,0.4c0.3,1.2,0.8,2.3,1.4,3.4c0.1,0.2,0.1,0.4,0,0.5l-2,3.2l2.7,2.7l3.2-2c0.2-0.1,0.4-0.1,0.5,0
			c1.1,0.6,2.2,1.1,3.4,1.4c0.2,0,0.3,0.2,0.4,0.4L15.4,33.6z"/>
	</g>
</g>
</svg>
