<?xml version="1.0" encoding="utf-8"?>
<!-- Generator: Adobe Illustrator 18.0.0, SVG Export Plug-In . SVG Version: 6.00 Build 0)  -->
<!DOCTYPE svg PUBLIC "-//W3C//DTD SVG 1.1//EN" "http://www.w3.org/Graphics/SVG/1.1/DTD/svg11.dtd">
<svg version="1.1" id="Layer_1" xmlns="http://www.w3.org/2000/svg" xmlns:xlink="http://www.w3.org/1999/xlink" x="0px" y="0px"
	 viewBox="0 0 76 76" enable-background="new 0 0 76 76" xml:space="preserve">
<g id="XMLID_77_">
	<g id="XMLID_78_">
		<g id="XMLID_120_">
			<path id="XMLID_130_" fill="#D6F2F3" d="M53.7,31l2.7-1.1c-1-2.4-2.5-4.5-4.4-6.4L50,25.6C51.5,27.1,52.8,29,53.7,31z"/>
			<path id="XMLID_123_" fill="#26CAD3" d="M50.4,50c-3.2,3.3-7.6,5.3-12.4,5.3c-2.2,0-4.5-0.4-6.6-1.3c-0.1,0-0.1,0-0.2-0.1
				c-2.2-0.9-4.1-2.2-5.7-3.9c-1.5-1.5-2.7-3.3-3.5-5.4c-0.1-0.1-0.1-0.3-0.2-0.4c-1.6-4.1-1.5-8.7,0.2-12.8c0.9-2.2,2.3-4.2,4-5.8
				c3.1-3,7.4-4.8,12-4.8h0c2.2,0,4.3,0.4,6.4,1.3l1.1-2.7c-2.4-1-5-1.5-7.5-1.5h0h0c-5.4,0-10.4,2.1-14.1,5.7
				c-1.9,1.9-3.5,4.2-4.6,6.8c-2.1,5-2,10.4-0.1,15c1,2.5,2.4,4.8,4.3,6.7c1.8,1.9,4.1,3.5,6.6,4.5c0.1,0,0.1,0.1,0.2,0.1
				c2.5,1,5.1,1.5,7.7,1.5c5.6,0,10.8-2.3,14.5-6.2L50.4,50z"/>
			<path id="XMLID_121_" fill="#A9E5E8" d="M44.6,22.1c2,0.8,3.8,2,5.4,3.5l2.1-2.1c-1.8-1.7-3.9-3.1-6.3-4.1c-0.1,0-0.1,0-0.2-0.1
				L44.4,22C44.5,22.1,44.5,22.1,44.6,22.1z"/>
		</g>
		<g id="XMLID_110_">
			<path id="XMLID_119_" fill="#C9E8F6" d="M14.9,37.5h-3c-0.1,3.4,0.5,6.8,1.8,10.1l2.7-1.1C15.3,43.6,14.8,40.6,14.9,37.5z"/>
			<path id="XMLID_118_" fill="#2BA3DA" d="M62.2,28c-0.1-0.1-0.1-0.3-0.2-0.4c-2.7-6.3-7.7-11.1-14-13.7c-0.1,0-0.1,0-0.2-0.1
				c-3.2-1.3-6.5-1.9-9.8-1.9h0c-10.5,0-19.8,6.2-24,15.7l2.8,1.1c3.7-8.5,12-13.9,21.2-13.9h0c3,0,5.9,0.6,8.7,1.7
				c0.1,0,0.1,0,0.2,0.1c5.6,2.3,9.9,6.6,12.4,12.1c0.1,0.1,0.1,0.3,0.2,0.4c1.1,2.7,1.7,5.5,1.8,8.4c0.1,3-0.5,6-1.6,8.9
				c-0.1,0.1-0.1,0.3-0.2,0.4c-3.6,8.7-12,14.3-21.4,14.3c-3,0-6-0.6-8.8-1.8c-0.1,0-0.1,0-0.2-0.1l-1.1,2.7c0.1,0,0.1,0.1,0.2,0.1
				c3.2,1.3,6.6,2,10,2c10.6,0,20.1-6.3,24.2-16.1c0.1-0.1,0.1-0.3,0.2-0.4c1.3-3.3,1.9-6.7,1.8-10.1C64.1,34.3,63.4,31.1,62.2,28z"
				/>
			<path id="XMLID_111_" fill="#93D1ED" d="M16.6,29.2c0.1-0.1,0.1-0.3,0.2-0.4L14,27.6c-0.1,0.1-0.1,0.3-0.2,0.4
				c-1.3,3.1-1.9,6.3-2,9.5h3C14.9,34.7,15.5,31.9,16.6,29.2z"/>
		</g>
		<g id="XMLID_103_">
			<path id="XMLID_109_" fill="#F8C68E" d="M27,11.1l-1.1-2.7c-3.9,1.6-7.4,3.9-10.3,6.8l2.1,2.1C20.4,14.6,23.5,12.5,27,11.1z"/>
			<path id="XMLID_104_" fill="#FBE3C7" d="M38,8.9v-3c-4.2,0-8.3,0.8-12.1,2.4l1.1,2.7C30.5,9.7,34.2,8.9,38,8.9z"/>
		</g>
		<g id="XMLID_81_">
			<path id="XMLID_99_" fill="#CADBE8" d="M70.4,51.4c-1.8,4.2-4.3,8-7.4,11.1l2.1,2.1c3.3-3.4,6.1-7.4,8-12.1
				c0.1-0.1,0.1-0.3,0.2-0.4L70.5,51C70.5,51.2,70.4,51.3,70.4,51.4z"/>
			<path id="XMLID_96_" fill="#93B8D3" d="M76,37.5h-3c0.1,4.6-0.8,9.1-2.5,13.5l2.7,1.1C75.2,47.4,76.1,42.4,76,37.5z"/>
			<path id="XMLID_92_" fill="#0076A9" d="M38,3l0-3c0,0,0,0,0,0L38,3C38,3,38,3,38,3z"/>
			<g id="XMLID_82_">
				<path id="XMLID_84_" fill="#0076A9" d="M52.6,2.9C47.8,0.9,42.9,0,38,0v3c4.6,0,9.1,0.9,13.4,2.7c8.6,3.6,15.4,10.3,19,19
					c1.7,4.2,2.6,8.6,2.7,12.9h3C75.8,22.8,67,8.9,52.6,2.9z"/>
				<path id="XMLID_83_" fill="#0076A9" d="M3.1,23.1c-0.1,0.1-0.1,0.3-0.2,0.4C1,28.1,0.1,32.9,0,37.5C-0.2,52.6,8.7,67,23.5,73.1
					c4.8,2,9.7,2.9,14.5,2.9c0,0,0,0,0,0v-3c0,0,0,0,0,0c-4.6,0-9.1-0.9-13.4-2.7c-8.6-3.6-15.4-10.3-19-19C3.8,47,2.9,42.3,3,37.5
					c0.1-4.4,0.9-8.8,2.7-12.9c0.1-0.1,0.1-0.3,0.2-0.4c1.8-4.3,4.5-8.1,7.6-11.2C19.9,6.7,28.6,3,38,3V0c-9.9,0-19.6,3.9-26.6,10.9
					C7.9,14.3,5.1,18.4,3.1,23.1z"/>
			</g>
		</g>
		<path id="XMLID_80_" fill="#F18E1E" d="M67.6,25.7c-1.7-4.1-4.1-7.7-7.2-10.6l-2.1,2.1c2.8,2.7,5,6,6.5,9.7c3,7.2,3,15.1,0,22.3
			c-1.5,3.5-3.5,6.6-6.1,9.2c-2.7,2.8-5.9,5-9.5,6.5c-3.5,1.5-7.3,2.3-11.3,2.3c0,0,0,0,0,0c-3.8,0-7.6-0.7-11.1-2.2
			c-3.7-1.5-7-3.8-9.7-6.5c-2.6-2.6-4.6-5.7-6.1-9.2c-3-7.2-3-15.1,0-22.3c1.5-3.7,3.8-7,6.5-9.7l-2.1-2.1c-3,3-5.5,6.6-7.2,10.7
			c-3.3,7.9-3.3,16.6,0,24.5c1.6,3.9,3.9,7.3,6.7,10.2c3,3.1,6.6,5.5,10.6,7.2c3.9,1.6,8.1,2.5,12.3,2.5c0,0,0,0,0,0
			c4.4,0,8.6-0.9,12.4-2.5c3.9-1.7,7.5-4.1,10.5-7.1c2.8-2.9,5.1-6.3,6.7-10.2C70.9,42.4,70.9,33.7,67.6,25.7z"/>
	</g>
</g>
</svg>
