<?xml version="1.0" encoding="utf-8"?>
<!-- Generator: Adobe Illustrator 18.0.0, SVG Export Plug-In . SVG Version: 6.00 Build 0)  -->
<!DOCTYPE svg PUBLIC "-//W3C//DTD SVG 1.1//EN" "http://www.w3.org/Graphics/SVG/1.1/DTD/svg11.dtd">
<svg version="1.1" id="Layer_1" xmlns="http://www.w3.org/2000/svg" xmlns:xlink="http://www.w3.org/1999/xlink" x="0px" y="0px"
	 viewBox="0 0 111.9 103.6" enable-background="new 0 0 111.9 103.6" xml:space="preserve">
<g id="XMLID_811_">
	<path id="XMLID_407_" fill="none" stroke="#8DC641" stroke-width="2.9783" stroke-linecap="round" stroke-miterlimit="10" d="
		M110.4,29.7C98.6,11.6,79.3,1.5,55.9,1.5S13.2,11.6,1.5,29.7"/>
	<path id="XMLID_406_" fill="none" stroke="#8DC641" stroke-width="2.9783" stroke-linecap="round" stroke-miterlimit="10" d="
		M18.1,42.9c8.1-12.6,21.5-19.5,37.7-19.5s29.6,7,37.7,19.5"/>
	<path id="XMLID_381_" fill="none" stroke="#8DC641" stroke-width="2.9783" stroke-linecap="round" stroke-miterlimit="10" d="
		M33.8,56.2c4.7-7.3,12.6-11.4,22.1-11.4c9.4,0,17.3,4.1,22.1,11.4"/>
	<path id="XMLID_326_" fill="#8DC641" d="M55.3,76.2c-5,0-9-4-9-9s4-9,9-9s9,4,9,9S60.2,76.2,55.3,76.2z"/>
	
		<line id="XMLID_329_" fill="none" stroke="#8DC641" stroke-width="2.9783" stroke-linecap="round" stroke-miterlimit="10" x1="55.4" y1="102.1" x2="55.4" y2="76.2"/>
</g>
</svg>
