<?xml version="1.0" encoding="utf-8"?>
<!-- Generator: Adobe Illustrator 18.0.0, SVG Export Plug-In . SVG Version: 6.00 Build 0)  -->
<!DOCTYPE svg PUBLIC "-//W3C//DTD SVG 1.1//EN" "http://www.w3.org/Graphics/SVG/1.1/DTD/svg11.dtd">
<svg version="1.1" id="Layer_1" xmlns="http://www.w3.org/2000/svg" xmlns:xlink="http://www.w3.org/1999/xlink" x="0px" y="0px"
	 viewBox="0 0 32.5 31.2" enable-background="new 0 0 32.5 31.2" xml:space="preserve">
<g id="XMLID_1687_">
	<path id="XMLID_1686_" fill-rule="evenodd" clip-rule="evenodd" fill="#F2C4B2" d="M28.2,31.1c-2.4,0-4.3-1.9-4.3-4.2
		s2.8-5.7,4.3-8.1c1.5,2.3,4.3,5.7,4.3,8.1S30.6,31.1,28.2,31.1"/>
	<path id="XMLID_1685_" fill-rule="evenodd" clip-rule="evenodd" fill="#F18E1E" stroke="#F18E1E" stroke-miterlimit="10" d="
		M29.7,15.6c0-7.6-6.2-13.7-13.9-13.7S1.9,8,1.9,15.6s6.2,13.7,13.9,13.7c2.2,0,4.2-0.5,6-1.4c0.2,1.2,0,1.3,0.1,1.5
		c-1.9,0.8-3.9,1.3-6.1,1.3C7.3,30.7,0.5,24,0.5,15.6S7.3,0.5,15.8,0.5s15.3,6.8,15.3,15.1c0,0.8-0.1,1.7-0.2,2.5
		c-0.4-0.6-0.8-1.2-1.2-1.8C29.6,16.1,29.7,15.8,29.7,15.6z"/>
	<path id="XMLID_1684_" fill-rule="evenodd" clip-rule="evenodd" fill="#F18E1E" d="M15.8,18.1c-1.2,0-2.1-0.9-2.1-2.1
		c0-1.1,0.8-1.9,1.8-2.1l4.8-6.8l1.2,0.7l-3.7,7.6c0.1,0.2,0.1,0.4,0.1,0.6C17.9,17.1,17,18.1,15.8,18.1z"/>
</g>
</svg>
