<?xml version="1.0" encoding="utf-8"?>
<!-- Generator: Adobe Illustrator 19.2.1, SVG Export Plug-In . SVG Version: 6.00 Build 0)  -->
<svg version="1.1" id="Layer_1" xmlns="http://www.w3.org/2000/svg" xmlns:xlink="http://www.w3.org/1999/xlink" x="0px" y="0px"
	 viewBox="0 0 248 248" style="enable-background:new 0 0 248 248;" xml:space="preserve">
<g>
	<g>
		<polygon points="136.1,230.2 102,179.7 67.7,230.2 24,230.2 77,153.4 27.1,80.6 71.1,80.6 102,126.8 132.7,80.6 176.7,80.6 
			126.5,153.4 180.1,230.2 		"/>
		<path d="M181,230.2V80.6h39.3v149.6H181L181,230.2z M176.9,41c0-13,10.8-23.2,23.5-23.2c13,0,23.5,10.2,23.5,23.2
			s-10.5,23.5-23.5,23.5C187.8,64.5,176.9,54,176.9,41L176.9,41z"/>
	</g>
</g>
</svg>
