<svg id="Layer_1" data-name="Layer 1" xmlns="http://www.w3.org/2000/svg" viewBox="0 0 114.7 94.1"><defs><style>.cls-1{fill:#e13f2b;}</style></defs><title>1r</title><path class="cls-1" d="M117.5,66.2a1.5,1.5,0,0,0-3,0v7h3v-7Z" transform="translate(-17.7 -27.9)"/><path class="cls-1" d="M34.9,27.9H28.2A10.5,10.5,0,0,0,17.7,38.4V41a1.5,1.5,0,0,0,3,0V38.3a7.55,7.55,0,0,1,7.5-7.5h5.2V29.3A1.45,1.45,0,0,1,34.9,27.9Z" transform="translate(-17.7 -27.9)"/><path class="cls-1" d="M60.3,104.3a1.5,1.5,0,0,0,0,3H83.6v-3H60.3Z" transform="translate(-17.7 -27.9)"/><path class="cls-1" d="M101.8,29.4v1.5H107a7.55,7.55,0,0,1,7.5,7.5V60.2a1.5,1.5,0,0,0,3,0V38.4A10.5,10.5,0,0,0,107,27.9h-6.7A1.47,1.47,0,0,1,101.8,29.4Z" transform="translate(-17.7 -27.9)"/><path class="cls-1" d="M100.3,27.9H53a1.5,1.5,0,0,0,0,3H98.8V29.4A1.47,1.47,0,0,1,100.3,27.9Z" transform="translate(-17.7 -27.9)"/><path class="cls-1" d="M33.4,105.8v-1.5H28.2a7.55,7.55,0,0,1-7.5-7.5V47a1.5,1.5,0,0,0-3,0V96.8a10.5,10.5,0,0,0,10.5,10.5h6.7A1.54,1.54,0,0,1,33.4,105.8Z" transform="translate(-17.7 -27.9)"/><path class="cls-1" d="M34.9,107.3H54.3a1.5,1.5,0,1,0,0-3H36.4v1.5A1.54,1.54,0,0,1,34.9,107.3Z" transform="translate(-17.7 -27.9)"/><path class="cls-1" d="M36.4,29.4v1.5H47a1.5,1.5,0,0,0,0-3H34.9A1.47,1.47,0,0,1,36.4,29.4Z" transform="translate(-17.7 -27.9)"/><polygon class="cls-1" points="40.2 36.5 48.9 45.3 68.7 25.6 68.7 23.5 66.5 23.5 48.9 41.1 40.2 32.3 18.7 53.8 18.7 58 40.2 36.5"/><path class="cls-1" d="M87.9,48.4H78.3a1.5,1.5,0,1,0,0,3h6l2.6-2.6A1.16,1.16,0,0,1,87.9,48.4Z" transform="translate(-17.7 -27.9)"/><path class="cls-1" d="M86.4,53.5v6a1.5,1.5,0,0,0,3,0V49.9A1.5,1.5,0,0,1,89,51Z" transform="translate(-17.7 -27.9)"/><path class="cls-1" d="M89.4,49.9V48.4H87.9A1.38,1.38,0,0,1,89.4,49.9Z" transform="translate(-17.7 -27.9)"/><path class="cls-1" d="M86.4,53.5L89,50.9a1.56,1.56,0,0,0-2.2-2.2l-2.6,2.6h2.1v2.2h0.1Z" transform="translate(-17.7 -27.9)"/><path class="cls-1" d="M35.9,86.4a1.5,1.5,0,0,1-2.6-1.1v19h3V85.9Z" transform="translate(-17.7 -27.9)"/><path class="cls-1" d="M36.4,81.7V30.9h-3V85.3a1.5,1.5,0,0,1,.4-1.1Z" transform="translate(-17.7 -27.9)"/><path class="cls-1" d="M33.4,105.8a1.5,1.5,0,0,0,3,0v-1.5h-3v1.5Z" transform="translate(-17.7 -27.9)"/><path class="cls-1" d="M36.4,29.4a1.5,1.5,0,0,0-3,0v1.5h3V29.4Z" transform="translate(-17.7 -27.9)"/><path class="cls-1" d="M34.9,86.8a1.5,1.5,0,0,0,1.1-.4l0.4-.4V81.8l-2.6,2.6a1.71,1.71,0,0,0,0,2.2A1.39,1.39,0,0,0,34.9,86.8Z" transform="translate(-17.7 -27.9)"/><rect class="cls-1" x="81.1" y="3" width="3" height="42.3"/><path class="cls-1" d="M101.8,29.4a1.5,1.5,0,0,0-3,0v1.5h3V29.4Z" transform="translate(-17.7 -27.9)"/><circle class="cls-1" cx="9.6" cy="39.7" r="2.9"/><path class="cls-1" d="M108.1,74.8a1.54,1.54,0,0,0,1.5-1.5V73.2h-3v0.1A1.54,1.54,0,0,0,108.1,74.8Z" transform="translate(-17.7 -27.9)"/><path class="cls-1" d="M109.6,61.9a1.5,1.5,0,0,0-3,0V73.2h3V61.9Z" transform="translate(-17.7 -27.9)"/><circle class="cls-1" cx="90.4" cy="69" r="4.5"/><path class="cls-1" d="M117.3,95.2a12.76,12.76,0,0,0-1.1-3.3,1.09,1.09,0,0,1,.2-1.4l2.1-2.1-1.9-1.9-2.1,2.1a1.21,1.21,0,0,1-1.4.2,14.11,14.11,0,0,0-3.3-1.1,1.17,1.17,0,0,1-.9-1.1V83.7h-1.5v2.9a1.17,1.17,0,0,1-.9,1.1,12.76,12.76,0,0,0-3.3,1.1,1.09,1.09,0,0,1-1.4-.2l-2.1-2.1-1.9,1.9,2.1,2.1a1.21,1.21,0,0,1,.2,1.4A14.11,14.11,0,0,0,99,95.2a1.17,1.17,0,0,1-1.1.9H95v1.5h2.9a1.17,1.17,0,0,1,1.1.9,12.76,12.76,0,0,0,1.1,3.3,1.09,1.09,0,0,1-.2,1.4l-2.1,2.1,1.9,1.9,2.1-2.1a1.21,1.21,0,0,1,1.4-.2,14.11,14.11,0,0,0,3.3,1.1,1.17,1.17,0,0,1,.9,1.1V110h1.5v-2.9a1.17,1.17,0,0,1,.9-1.1,12.76,12.76,0,0,0,3.3-1.1,1.09,1.09,0,0,1,1.4.2l2.1,2.1,1.9-1.9-2.1-2.1a1.21,1.21,0,0,1-.2-1.4,14.11,14.11,0,0,0,1.1-3.3,1.17,1.17,0,0,1,1.1-.9h2.9V96.1h-2.9A1.07,1.07,0,0,1,117.3,95.2Zm-9.2,8.4a6.7,6.7,0,1,1,6.7-6.7A6.7,6.7,0,0,1,108.1,103.6Z" transform="translate(-17.7 -27.9)"/><path class="cls-1" d="M127.9,73.2H88.1a4.48,4.48,0,0,0-4.5,4.5v39.8a4.48,4.48,0,0,0,4.5,4.5h39.8a4.48,4.48,0,0,0,4.5-4.5V77.7A4.55,4.55,0,0,0,127.9,73.2Zm-4.3,25.5a1.11,1.11,0,0,1-1.1,1.1h-3.2a15.55,15.55,0,0,1-.8,2.3l2.3,2.3a1.22,1.22,0,0,1,0,1.6l-3.5,3.5a1.22,1.22,0,0,1-1.6,0l-2.3-2.3a15.55,15.55,0,0,1-2.3.8v3.2a1.11,1.11,0,0,1-1.1,1.1h-3.7a1.11,1.11,0,0,1-1.1-1.1V108a15.55,15.55,0,0,1-2.3-.8l-2.3,2.3a1.22,1.22,0,0,1-1.6,0L95.5,106a1.22,1.22,0,0,1,0-1.6l2.3-2.3a15.55,15.55,0,0,1-.8-2.3H93.8a1.11,1.11,0,0,1-1.1-1.1V95a1.11,1.11,0,0,1,1.1-1.1H97a15.55,15.55,0,0,1,.8-2.3l-2.3-2.3a1.22,1.22,0,0,1,0-1.6L99,84.2a1.22,1.22,0,0,1,1.6,0l2.3,2.3a15.55,15.55,0,0,1,2.3-.8V82.5a1.11,1.11,0,0,1,1.1-1.1H110a1.11,1.11,0,0,1,1.1,1.1v3.2a15.55,15.55,0,0,1,2.3.8l2.3-2.3a1.22,1.22,0,0,1,1.6,0l3.5,3.5a1.22,1.22,0,0,1,0,1.6l-2.3,2.3a15.55,15.55,0,0,1,.8,2.3h3.2a1.11,1.11,0,0,1,1.1,1.1v3.7Z" transform="translate(-17.7 -27.9)"/></svg>