<svg id="Layer_1" data-name="Layer 1" xmlns="http://www.w3.org/2000/svg" viewBox="0 0 114.7 94.1"><defs><style>.cls-1{fill:#fff;}</style></defs><title>1w</title><path class="cls-1" d="M103.85,40.4a1.5,1.5,0,1,0-3,0v7h3v-7Z" transform="translate(-4.05 -2.1)"/><path class="cls-1" d="M21.25,2.1h-6.7A10.5,10.5,0,0,0,4.05,12.6v2.6a1.54,1.54,0,0,0,1.5,1.5,1.54,1.54,0,0,0,1.5-1.5V12.5A7.55,7.55,0,0,1,14.55,5h5.2V3.5A1.45,1.45,0,0,1,21.25,2.1Z" transform="translate(-4.05 -2.1)"/><path class="cls-1" d="M46.65,78.5a1.5,1.5,0,0,0,0,3H70v-3H46.65Z" transform="translate(-4.05 -2.1)"/><path class="cls-1" d="M88.15,3.6V5.1h5.2a7.55,7.55,0,0,1,7.5,7.5V34.4a1.5,1.5,0,1,0,3,0V12.6A10.5,10.5,0,0,0,93.35,2.1h-6.7A1.47,1.47,0,0,1,88.15,3.6Z" transform="translate(-4.05 -2.1)"/><path class="cls-1" d="M86.65,2.1H39.35a1.54,1.54,0,0,0-1.5,1.5,1.54,1.54,0,0,0,1.5,1.5h45.8V3.6A1.47,1.47,0,0,1,86.65,2.1Z" transform="translate(-4.05 -2.1)"/><path class="cls-1" d="M19.75,80V78.5h-5.2A7.55,7.55,0,0,1,7.05,71V21.2a1.54,1.54,0,0,0-1.5-1.5,1.54,1.54,0,0,0-1.5,1.5V71a10.5,10.5,0,0,0,10.5,10.5h6.7A1.54,1.54,0,0,1,19.75,80Z" transform="translate(-4.05 -2.1)"/><path class="cls-1" d="M21.25,81.5h19.4a1.5,1.5,0,0,0,0-3H22.75V80A1.54,1.54,0,0,1,21.25,81.5Z" transform="translate(-4.05 -2.1)"/><path class="cls-1" d="M22.75,3.6V5.1h10.6a1.54,1.54,0,0,0,1.5-1.5,1.54,1.54,0,0,0-1.5-1.5H21.25A1.47,1.47,0,0,1,22.75,3.6Z" transform="translate(-4.05 -2.1)"/><polygon class="cls-1" points="40.2 36.5 48.9 45.3 68.7 25.6 68.7 23.5 66.5 23.5 48.9 41.1 40.2 32.3 18.7 53.8 18.7 58 40.2 36.5"/><path class="cls-1" d="M74.25,22.6h-9.6a1.5,1.5,0,0,0,0,3h6l2.6-2.6A1.16,1.16,0,0,1,74.25,22.6Z" transform="translate(-4.05 -2.1)"/><path class="cls-1" d="M72.75,27.7v6a1.5,1.5,0,0,0,3,0V24.1a1.5,1.5,0,0,1-.4,1.1Z" transform="translate(-4.05 -2.1)"/><path class="cls-1" d="M75.75,24.1V22.6h-1.5A1.38,1.38,0,0,1,75.75,24.1Z" transform="translate(-4.05 -2.1)"/><path class="cls-1" d="M72.75,27.7l2.6-2.6a1.56,1.56,0,0,0-2.2-2.2l-2.6,2.6h2.1v2.2h0.1Z" transform="translate(-4.05 -2.1)"/><path class="cls-1" d="M22.25,60.6a1.5,1.5,0,0,1-2.6-1.1v19h3V60.1Z" transform="translate(-4.05 -2.1)"/><path class="cls-1" d="M22.75,55.9V5.1h-3V59.5a1.5,1.5,0,0,1,.4-1.1Z" transform="translate(-4.05 -2.1)"/><path class="cls-1" d="M19.75,80a1.5,1.5,0,0,0,3,0V78.5h-3V80Z" transform="translate(-4.05 -2.1)"/><path class="cls-1" d="M22.75,3.6a1.5,1.5,0,1,0-3,0V5.1h3V3.6Z" transform="translate(-4.05 -2.1)"/><path class="cls-1" d="M21.25,61a1.5,1.5,0,0,0,1.1-.4l0.4-.4V56l-2.6,2.6a1.71,1.71,0,0,0,0,2.2A1.39,1.39,0,0,0,21.25,61Z" transform="translate(-4.05 -2.1)"/><rect class="cls-1" x="81.1" y="3" width="3" height="42.3"/><path class="cls-1" d="M88.15,3.6a1.5,1.5,0,0,0-3,0V5.1h3V3.6Z" transform="translate(-4.05 -2.1)"/><circle class="cls-1" cx="9.6" cy="39.7" r="2.9"/><path class="cls-1" d="M94.45,49A1.54,1.54,0,0,0,96,47.5V47.4H93v0.1A1.54,1.54,0,0,0,94.45,49Z" transform="translate(-4.05 -2.1)"/><path class="cls-1" d="M96,36.1a1.5,1.5,0,0,0-3,0V47.4h3V36.1Z" transform="translate(-4.05 -2.1)"/><circle class="cls-1" cx="90.4" cy="69" r="4.5"/><path class="cls-1" d="M103.65,69.4a12.76,12.76,0,0,0-1.1-3.3,1.09,1.09,0,0,1,.2-1.4l2.1-2.1L103,60.7l-2.1,2.1a1.21,1.21,0,0,1-1.4.2,14.11,14.11,0,0,0-3.3-1.1,1.17,1.17,0,0,1-.9-1.1V57.9h-1.5v2.9a1.17,1.17,0,0,1-.9,1.1,12.76,12.76,0,0,0-3.3,1.1,1.09,1.09,0,0,1-1.4-.2L86,60.7l-1.9,1.9,2.1,2.1a1.21,1.21,0,0,1,.2,1.4,14.11,14.11,0,0,0-1.1,3.3,1.17,1.17,0,0,1-1.1.9h-2.9v1.5h2.9a1.17,1.17,0,0,1,1.1.9,12.76,12.76,0,0,0,1.1,3.3,1.09,1.09,0,0,1-.2,1.4l-2.1,2.1L86,81.4l2.1-2.1a1.21,1.21,0,0,1,1.4-.2,14.11,14.11,0,0,0,3.3,1.1,1.17,1.17,0,0,1,.9,1.1v2.9h1.5V81.3a1.17,1.17,0,0,1,.9-1.1,12.76,12.76,0,0,0,3.3-1.1,1.09,1.09,0,0,1,1.4.2l2.1,2.1,1.9-1.9-2.1-2.1a1.21,1.21,0,0,1-.2-1.4,14.11,14.11,0,0,0,1.1-3.3,1.17,1.17,0,0,1,1.1-.9h2.9V70.3h-2.9A1.07,1.07,0,0,1,103.65,69.4Zm-9.2,8.4a6.7,6.7,0,1,1,6.7-6.7A6.7,6.7,0,0,1,94.45,77.8Z" transform="translate(-4.05 -2.1)"/><path class="cls-1" d="M114.25,47.4H74.45A4.48,4.48,0,0,0,70,51.9V91.7a4.48,4.48,0,0,0,4.5,4.5h39.8a4.48,4.48,0,0,0,4.5-4.5V51.9A4.55,4.55,0,0,0,114.25,47.4ZM110,72.9a1.11,1.11,0,0,1-1.1,1.1h-3.2a15.55,15.55,0,0,1-.8,2.3l2.3,2.3a1.22,1.22,0,0,1,0,1.6l-3.5,3.5a1.22,1.22,0,0,1-1.6,0l-2.3-2.3a15.55,15.55,0,0,1-2.3.8v3.2a1.11,1.11,0,0,1-1.1,1.1h-3.7a1.11,1.11,0,0,1-1.1-1.1V82.2a15.55,15.55,0,0,1-2.3-.8L87,83.7a1.22,1.22,0,0,1-1.6,0l-3.5-3.5a1.22,1.22,0,0,1,0-1.6l2.3-2.3a15.55,15.55,0,0,1-.8-2.3h-3.2a1.11,1.11,0,0,1-1.1-1.1V69.2a1.11,1.11,0,0,1,1.1-1.1h3.2a15.55,15.55,0,0,1,.8-2.3l-2.3-2.3a1.22,1.22,0,0,1,0-1.6l3.5-3.5a1.22,1.22,0,0,1,1.6,0l2.3,2.3a15.55,15.55,0,0,1,2.3-.8V56.7a1.11,1.11,0,0,1,1.1-1.1h3.7a1.11,1.11,0,0,1,1.1,1.1v3.2a15.55,15.55,0,0,1,2.3.8l2.3-2.3a1.22,1.22,0,0,1,1.6,0l3.5,3.5a1.22,1.22,0,0,1,0,1.6l-2.3,2.3a15.55,15.55,0,0,1,.8,2.3h3.2a1.11,1.11,0,0,1,1.1,1.1v3.7Z" transform="translate(-4.05 -2.1)"/></svg>