<svg id="Layer_1" data-name="Layer 1" xmlns="http://www.w3.org/2000/svg" viewBox="0 0 113.75 99.8"><defs><style>.cls-1{fill:#e2402b;}</style></defs><title>2r</title><path class="cls-1" d="M121.6,73A50,50,0,0,0,85.3,25a0.74,0.74,0,0,0,.6-0.6,0.64,0.64,0,0,0-.6-0.8H85.1a0.68,0.68,0,0,0-.7.7,1.07,1.07,0,0,0,.2.6c-0.6-.2-1.3-0.3-1.9-0.5a0.37,0.37,0,0,0,.1-0.3,0.77,0.77,0,0,0-.7-0.8H82a0.68,0.68,0,0,0-.7.7v0.1l-1.6-.3a8.75,8.75,0,0,0-1.6-.2H77.9c-0.5-.1-1.1-0.1-1.6-0.2-0.3,0-.7-0.1-1-0.1a20.08,20.08,0,0,0-2.5-.1h-58V73a50,50,0,0,0,49.9,49.9h9.2c0.7,0,1.4-.1,2.2-0.1,0.4,0,.8-0.1,1.2-0.1,0.6-.1,1.2-0.1,1.7-0.2a0.75,0.75,0,0,0,.7.5h0.1a0.71,0.71,0,0,0,.7-0.8h0l1.6-.3v0.2a0.75,0.75,0,0,0,.7.7H83a0.77,0.77,0,0,0,.7-0.8,0.52,0.52,0,0,0-.2-0.4A50.19,50.19,0,0,0,121.6,73ZM39.1,112.2A46.72,46.72,0,0,1,17.8,73V26.1H64.7a46.9,46.9,0,1,1-22.6,88m36.5,6.8a49.86,49.86,0,0,0,.1-95.7A48.37,48.37,0,0,1,120.1,73h0A48.4,48.4,0,0,1,78.6,120.9Z" transform="translate(-14.8 -23.2)"/><path class="cls-1" d="M94,27h0a0.49,0.49,0,0,0,.3.1,0.75,0.75,0,0,0,.7-0.5,0.72,0.72,0,0,0-.5-0.9H94.2a0.75,0.75,0,0,0-.7.5A0.66,0.66,0,0,0,94,27Z" transform="translate(-14.8 -23.2)"/><path class="cls-1" d="M92.1,119.6H91.8a0.72,0.72,0,0,0-.5.9,0.75,0.75,0,0,0,.7.5h0.3a0.72,0.72,0,0,0,.5-0.9A0.75,0.75,0,0,0,92.1,119.6Z" transform="translate(-14.8 -23.2)"/><path class="cls-1" d="M89,120.3H88.7a0.78,0.78,0,0,0-.6.9,0.73,0.73,0,0,0,.7.6h0.3a0.78,0.78,0,0,0,.6-0.9A0.61,0.61,0,0,0,89,120.3Z" transform="translate(-14.8 -23.2)"/><path class="cls-1" d="M88,25.5h0.2a0.61,0.61,0,0,0,.7-0.6,0.78,0.78,0,0,0-.6-0.9H88.1a0.61,0.61,0,0,0-.7.6A0.87,0.87,0,0,0,88,25.5Z" transform="translate(-14.8 -23.2)"/><path class="cls-1" d="M91,26.2h0.3a0.73,0.73,0,0,0,.7-0.6,0.72,0.72,0,0,0-.5-0.9H91.2a0.73,0.73,0,0,0-.7.6A0.72,0.72,0,0,0,91,26.2Z" transform="translate(-14.8 -23.2)"/><path class="cls-1" d="M85.9,120.9H85.8a0.68,0.68,0,0,0-.6.8,0.73,0.73,0,0,0,.7.6h0.2a0.68,0.68,0,0,0,.6-0.8A0.76,0.76,0,0,0,85.9,120.9Z" transform="translate(-14.8 -23.2)"/><path class="cls-1" d="M95,118.6H94.8a0.83,0.83,0,0,0-.5,1,0.75,0.75,0,0,0,.7.5h0.3a0.83,0.83,0,0,0,.5-1A1,1,0,0,0,95,118.6Z" transform="translate(-14.8 -23.2)"/><path class="cls-1" d="M106.2,113a0.6,0.6,0,0,0-.4.1h-0.1a0.78,0.78,0,0,0-.2,1,0.71,0.71,0,0,0,.6.3,0.6,0.6,0,0,0,.4-0.1h0.1a0.78,0.78,0,0,0,.2-1A0.71,0.71,0,0,0,106.2,113Z" transform="translate(-14.8 -23.2)"/><path class="cls-1" d="M100.8,116.2a0.37,0.37,0,0,0-.3.1h0a0.69,0.69,0,0,0-.3,1,0.67,0.67,0,0,0,.7.4,0.37,0.37,0,0,0,.3-0.1h0.1a0.69,0.69,0,0,0,.3-1A1,1,0,0,0,100.8,116.2Z" transform="translate(-14.8 -23.2)"/><path class="cls-1" d="M98,117.5a0.37,0.37,0,0,0-.3.1h0a0.73,0.73,0,0,0-.4,1,0.75,0.75,0,0,0,.7.5,0.37,0.37,0,0,0,.3-0.1h0.1a0.73,0.73,0,0,0,.4-1A1.46,1.46,0,0,0,98,117.5Z" transform="translate(-14.8 -23.2)"/><path class="cls-1" d="M103.5,114.7a0.6,0.6,0,0,0-.4.1H103a0.71,0.71,0,0,0-.3,1,0.82,0.82,0,0,0,.6.4,0.6,0.6,0,0,0,.4-0.1h0.1a0.71,0.71,0,0,0,.3-1A0.49,0.49,0,0,0,103.5,114.7Z" transform="translate(-14.8 -23.2)"/><path class="cls-1" d="M107.7,34.2h0a1.06,1.06,0,0,0,.5.2,0.71,0.71,0,0,0,.6-0.3,0.68,0.68,0,0,0-.2-1l-0.1-.1a0.6,0.6,0,0,0-.4-0.1,0.71,0.71,0,0,0-.6.3,0.64,0.64,0,0,0,.2,1C107.6,34.1,107.6,34.2,107.7,34.2Z" transform="translate(-14.8 -23.2)"/><path class="cls-1" d="M122.9,53.1h0a0.71,0.71,0,0,0,.7.5,0.37,0.37,0,0,0,.3-0.1,0.82,0.82,0,0,0,.4-1V52.4a0.67,0.67,0,0,0-.7-0.4,0.37,0.37,0,0,0-.3.1A0.76,0.76,0,0,0,122.9,53.1Z" transform="translate(-14.8 -23.2)"/><path class="cls-1" d="M125.1,58.9h0a0.73,0.73,0,0,0,.7.6H126a0.72,0.72,0,0,0,.5-0.9V58.5a0.75,0.75,0,0,0-.7-0.5h-0.2A0.72,0.72,0,0,0,125.1,58.9Z" transform="translate(-14.8 -23.2)"/><path class="cls-1" d="M124.1,56h0a0.73,0.73,0,0,0,.7.6h0.3a0.7,0.7,0,0,0,.4-1V55.5a0.75,0.75,0,0,0-.7-0.5h-0.3A0.73,0.73,0,0,0,124.1,56Z" transform="translate(-14.8 -23.2)"/><path class="cls-1" d="M121.6,50.4h0a0.67,0.67,0,0,0,.7.4,0.37,0.37,0,0,0,.3-0.1,0.69,0.69,0,0,0,.3-1V49.6a0.67,0.67,0,0,0-.7-0.4,0.76,0.76,0,0,0-.4.1,0.89,0.89,0,0,0-.2,1.1h0Z" transform="translate(-14.8 -23.2)"/><path class="cls-1" d="M127.9,70.3h0a0.86,0.86,0,0,0-.8.8v0.1a0.68,0.68,0,0,0,.7.7h0a0.77,0.77,0,0,0,.7-0.8V71A0.56,0.56,0,0,0,127.9,70.3Z" transform="translate(-14.8 -23.2)"/><path class="cls-1" d="M127.6,67.1a0.77,0.77,0,0,0-.7.8h0V68a0.75,0.75,0,0,0,.7.7h0.1a0.77,0.77,0,0,0,.7-0.8V67.8a0.77,0.77,0,0,0-.8-0.7h0Z" transform="translate(-14.8 -23.2)"/><path class="cls-1" d="M120,47.7h0a0.75,0.75,0,0,0,.7.4,0.6,0.6,0,0,0,.4-0.1,0.62,0.62,0,0,0,.2-1V46.9a0.82,0.82,0,0,0-.6-0.4,0.6,0.6,0,0,0-.4.1,0.83,0.83,0,0,0-.3,1.1h0Z" transform="translate(-14.8 -23.2)"/><path class="cls-1" d="M127.1,64a0.78,0.78,0,0,0-.6.9V65a0.73,0.73,0,0,0,.7.6h0.1a0.78,0.78,0,0,0,.6-0.9V64.6a0.73,0.73,0,0,0-.7-0.6h-0.1Z" transform="translate(-14.8 -23.2)"/><path class="cls-1" d="M125.9,61.9h0a0.84,0.84,0,0,0,.7.7h0.2a0.78,0.78,0,0,0,.6-0.9V61.6a0.86,0.86,0,0,0-.7-0.6h-0.2A0.71,0.71,0,0,0,125.9,61.9Z" transform="translate(-14.8 -23.2)"/><path class="cls-1" d="M99.7,29.4h0a0.76,0.76,0,0,0,.4.1,1,1,0,0,0,.7-0.4,0.78,0.78,0,0,0-.3-1h-0.1a0.37,0.37,0,0,0-.3-0.1,1,1,0,0,0-.7.4A0.71,0.71,0,0,0,99.7,29.4Z" transform="translate(-14.8 -23.2)"/><path class="cls-1" d="M105.1,32.4h0a1.06,1.06,0,0,0,.5.2,0.71,0.71,0,0,0,.6-0.3,0.78,0.78,0,0,0-.2-1h-0.1a0.6,0.6,0,0,0-.4-0.1,0.71,0.71,0,0,0-.6.3C104.6,31.7,104.7,32.1,105.1,32.4Z" transform="translate(-14.8 -23.2)"/><path class="cls-1" d="M110,36.1h0a0.65,0.65,0,0,0,.5.2,0.86,0.86,0,0,0,.6-0.3,0.79,0.79,0,0,0-.1-1.1l-0.1-.1a0.76,0.76,0,0,0-.5-0.2,0.86,0.86,0,0,0-.6.3,1.28,1.28,0,0,0,.2,1.2h0Z" transform="translate(-14.8 -23.2)"/><path class="cls-1" d="M102.4,30.8h0a0.82,0.82,0,0,0,1.1-.3,0.69,0.69,0,0,0-.3-1h-0.1a0.48,0.48,0,0,0-.4-0.1,0.75,0.75,0,0,0-.7.4A1.28,1.28,0,0,0,102.4,30.8Z" transform="translate(-14.8 -23.2)"/><path class="cls-1" d="M118.3,45.1h0a0.75,0.75,0,0,0,.7.4,0.6,0.6,0,0,0,.4-0.1,0.78,0.78,0,0,0,.2-1V44.3A0.71,0.71,0,0,0,119,44a0.6,0.6,0,0,0-.4.1,0.71,0.71,0,0,0-.3,1h0Z" transform="translate(-14.8 -23.2)"/><path class="cls-1" d="M96.9,28.1h0a0.77,0.77,0,0,0,1.1-.4,0.73,0.73,0,0,0-.4-1H97.5c-0.1,0-.2-0.1-0.3-0.1a0.75,0.75,0,0,0-.7.5A0.7,0.7,0,0,0,96.9,28.1Z" transform="translate(-14.8 -23.2)"/><path class="cls-1" d="M116.5,42.7h0a0.86,0.86,0,0,0,.6.3,1.06,1.06,0,0,0,.5-0.2,0.78,0.78,0,0,0,.1-1.1l-0.1-.1a0.71,0.71,0,0,0-.6-0.3,0.8,0.8,0,0,0-.5,1.4h0Z" transform="translate(-14.8 -23.2)"/><path class="cls-1" d="M112.4,38.2h0a0.72,0.72,0,0,0,1,0,0.78,0.78,0,0,0,0-1.1l-0.1-.1a0.72,0.72,0,0,0-1,0,0.82,0.82,0,0,0,.1,1.2h0Z" transform="translate(-14.8 -23.2)"/><path class="cls-1" d="M114.5,40.4a0.64,0.64,0,0,0,.6.2,0.76,0.76,0,0,0,.5-0.2,0.78,0.78,0,0,0,0-1.1l-0.1-.1a0.64,0.64,0,0,0-.6-0.2,0.76,0.76,0,0,0-.5.2,1.07,1.07,0,0,0,.1,1.2h0Z" transform="translate(-14.8 -23.2)"/><path class="cls-1" d="M115.6,104.8a0.86,0.86,0,0,0-.6.3h0a0.79,0.79,0,0,0,.1,1.1,0.76,0.76,0,0,0,.5.2,0.86,0.86,0,0,0,.6-0.3l0.1-.1a0.79,0.79,0,0,0-.1-1.1A1.49,1.49,0,0,0,115.6,104.8Z" transform="translate(-14.8 -23.2)"/><path class="cls-1" d="M119.4,99.8a0.71,0.71,0,0,0-.6.3h0a0.78,0.78,0,0,0,.2,1,0.6,0.6,0,0,0,.4.1,0.71,0.71,0,0,0,.6-0.3v-0.1a0.78,0.78,0,0,0-.2-1A0.53,0.53,0,0,1,119.4,99.8Z" transform="translate(-14.8 -23.2)"/><path class="cls-1" d="M123,94.5a0.37,0.37,0,0,0-.3-0.1,0.75,0.75,0,0,0-.7.4v0.1a0.78,0.78,0,0,0,.3,1,0.37,0.37,0,0,0,.3.1,0.75,0.75,0,0,0,.7-0.4V95.5A0.81,0.81,0,0,0,123,94.5Z" transform="translate(-14.8 -23.2)"/><path class="cls-1" d="M121.5,97.3a0.6,0.6,0,0,0-.4-0.1,0.55,0.55,0,0,0-.6.4v0.1a0.69,0.69,0,0,0,.3,1,0.6,0.6,0,0,0,.4.1,0.55,0.55,0,0,0,.6-0.4V98.3A0.81,0.81,0,0,0,121.5,97.3Z" transform="translate(-14.8 -23.2)"/><path class="cls-1" d="M124.2,91.7c-0.1,0-.2-0.1-0.3-0.1a0.75,0.75,0,0,0-.7.5h0a0.73,0.73,0,0,0,.4,1c0.1,0,.2.1,0.3,0.1a0.75,0.75,0,0,0,.7-0.5V92.6A0.63,0.63,0,0,0,124.2,91.7Z" transform="translate(-14.8 -23.2)"/><path class="cls-1" d="M111.2,109.2a0.76,0.76,0,0,0-.5.2h0a0.9,0.9,0,0,0-.1,1.1,0.71,0.71,0,0,0,.6.3,0.76,0.76,0,0,0,.5-0.2l0.1-.1a0.9,0.9,0,0,0,.1-1.1A2.54,2.54,0,0,0,111.2,109.2Z" transform="translate(-14.8 -23.2)"/><path class="cls-1" d="M125.3,88.8H125a0.75,0.75,0,0,0-.7.5v0.1a0.88,0.88,0,0,0,.5,1h0.3a0.75,0.75,0,0,0,.7-0.5V89.8A0.78,0.78,0,0,0,125.3,88.8Z" transform="translate(-14.8 -23.2)"/><path class="cls-1" d="M108.7,111.2a1.06,1.06,0,0,0-.5.2h0a0.78,0.78,0,0,0-.1,1.1,0.71,0.71,0,0,0,.6.3,1.06,1.06,0,0,0,.5-0.2l0.1-.1a0.78,0.78,0,0,0,.1-1.1A1.45,1.45,0,0,0,108.7,111.2Z" transform="translate(-14.8 -23.2)"/><path class="cls-1" d="M113.4,107.1a0.76,0.76,0,0,0-.5.2h0a0.78,0.78,0,0,0,0,1.1,0.73,0.73,0,0,0,1,0l0.1-.1a0.78,0.78,0,0,0,0-1.1A1.27,1.27,0,0,0,113.4,107.1Z" transform="translate(-14.8 -23.2)"/><path class="cls-1" d="M117.6,102.4a0.86,0.86,0,0,0-.6.3v0.1h0a0.79,0.79,0,0,0,.1,1.1,0.76,0.76,0,0,0,.5.2,0.86,0.86,0,0,0,.6-0.3l0.1-.1a0.79,0.79,0,0,0-.1-1.1A1,1,0,0,0,117.6,102.4Z" transform="translate(-14.8 -23.2)"/><path class="cls-1" d="M127.5,79.6h-0.1a0.67,0.67,0,0,0-.7.6v0.1a0.78,0.78,0,0,0,.6.9h0.1a0.67,0.67,0,0,0,.7-0.6V80.5A0.78,0.78,0,0,0,127.5,79.6Z" transform="translate(-14.8 -23.2)"/><path class="cls-1" d="M126.2,85.8H126a0.75,0.75,0,0,0-.7.5h0v0.1a0.72,0.72,0,0,0,.5.9H126a0.75,0.75,0,0,0,.7-0.5V86.7A0.65,0.65,0,0,0,126.2,85.8Z" transform="translate(-14.8 -23.2)"/><path class="cls-1" d="M127.9,73.4h0a0.77,0.77,0,0,0-.8.7v0.1a0.77,0.77,0,0,0,.7.8h0a0.68,0.68,0,0,0,.7-0.7V74.2A0.57,0.57,0,0,0,127.9,73.4Z" transform="translate(-14.8 -23.2)"/><path class="cls-1" d="M127,82.7h-0.2a0.66,0.66,0,0,0-.7.6v0.1h0a0.78,0.78,0,0,0,.6.9h0.2a0.66,0.66,0,0,0,.7-0.6V83.6A0.87,0.87,0,0,0,127,82.7Z" transform="translate(-14.8 -23.2)"/><path class="cls-1" d="M127.8,76.5h0a0.71,0.71,0,0,0-.8.7h0a0.77,0.77,0,0,0,.7.8h0.1a0.68,0.68,0,0,0,.7-0.7V77.2A0.75,0.75,0,0,0,127.8,76.5Z" transform="translate(-14.8 -23.2)"/><path class="cls-1" d="M74.3,122.8h0Z" transform="translate(-14.8 -23.2)"/><path class="cls-1" d="M94.1,112.2a1.54,1.54,0,0,1-1.5-1.5v-8.5a28.82,28.82,0,0,0-1.1-7.8,1.46,1.46,0,1,1,2.8-.8,31.51,31.51,0,0,1,1.2,8.7v8.5A1.36,1.36,0,0,1,94.1,112.2Zm-58.8,0a1.54,1.54,0,0,1-1.5-1.5v-6.1a1.5,1.5,0,0,1,3,0v6.1A1.54,1.54,0,0,1,35.3,112.2Zm0.2-12H35.3A1.5,1.5,0,0,1,34,98.5,30.91,30.91,0,0,1,64.7,71.3a30.35,30.35,0,0,1,16.8,5,1.51,1.51,0,1,1-1.7,2.5A27.9,27.9,0,0,0,36.9,98.9,1.42,1.42,0,0,1,35.5,100.2ZM90.7,89.9a1.44,1.44,0,0,1-1.3-.8,25.8,25.8,0,0,0-5.1-6.8,1.48,1.48,0,1,1,2.1-2.1A31.92,31.92,0,0,1,92,87.7a1.49,1.49,0,0,1-.6,2A2.54,2.54,0,0,1,90.7,89.9Z" transform="translate(-14.8 -23.2)"/><g id="_Group_" data-name="&lt;Group&gt;"><path class="cls-1" d="M64.7,74A18.27,18.27,0,0,1,47.2,60.6a1.46,1.46,0,0,1,2.8-.8A15.39,15.39,0,0,0,64.7,71a15.1,15.1,0,1,0-8.3-27.7,1.51,1.51,0,0,1-1.7-2.5,17.79,17.79,0,0,1,10-3A18.1,18.1,0,0,1,64.7,74ZM48.1,55.8H48a1.46,1.46,0,0,1-1.3-1.6,18.38,18.38,0,0,1,3.4-9A1.5,1.5,0,0,1,52.5,47a14.65,14.65,0,0,0-2.8,7.5A1.71,1.71,0,0,1,48.1,55.8Z" transform="translate(-14.8 -23.2)"/></g></svg>