<svg id="Layer_1" data-name="Layer 1" xmlns="http://www.w3.org/2000/svg" viewBox="0 0 113.75 99.8"><defs><style>.cls-1{fill:#fff;}</style></defs><title>2w</title><path class="cls-1" d="M124.6,75A50,50,0,0,0,88.3,27a0.74,0.74,0,0,0,.6-0.6,0.64,0.64,0,0,0-.6-0.8H88.1a0.68,0.68,0,0,0-.7.7,1.07,1.07,0,0,0,.2.6c-0.6-.2-1.3-0.3-1.9-0.5a0.37,0.37,0,0,0,.1-0.3,0.77,0.77,0,0,0-.7-0.8H85a0.68,0.68,0,0,0-.7.7v0.1l-1.6-.3a8.75,8.75,0,0,0-1.6-.2H80.9c-0.5-.1-1.1-0.1-1.6-0.2-0.3,0-.7-0.1-1-0.1a20.08,20.08,0,0,0-2.5-.1h-58V75a50,50,0,0,0,49.9,49.9h9.2c0.7,0,1.4-.1,2.2-0.1,0.4,0,.8-0.1,1.2-0.1,0.6-.1,1.2-0.1,1.7-0.2a0.75,0.75,0,0,0,.7.5h0.1a0.71,0.71,0,0,0,.7-0.8h0l1.6-.3v0.2a0.75,0.75,0,0,0,.7.7H86a0.77,0.77,0,0,0,.7-0.8,0.52,0.52,0,0,0-.2-0.4A50.19,50.19,0,0,0,124.6,75ZM42.1,114.2A46.72,46.72,0,0,1,20.8,75V28.1H67.7a46.9,46.9,0,1,1-22.6,88m36.5,6.8a49.86,49.86,0,0,0,.1-95.7A48.37,48.37,0,0,1,123.1,75h0A48.4,48.4,0,0,1,81.6,122.9Z" transform="translate(-17.8 -25.2)"/><path class="cls-1" d="M97,29h0a0.49,0.49,0,0,0,.3.1,0.75,0.75,0,0,0,.7-0.5,0.72,0.72,0,0,0-.5-0.9H97.2a0.75,0.75,0,0,0-.7.5A0.66,0.66,0,0,0,97,29Z" transform="translate(-17.8 -25.2)"/><path class="cls-1" d="M95.1,121.6H94.8a0.72,0.72,0,0,0-.5.9,0.75,0.75,0,0,0,.7.5h0.3a0.72,0.72,0,0,0,.5-0.9A0.75,0.75,0,0,0,95.1,121.6Z" transform="translate(-17.8 -25.2)"/><path class="cls-1" d="M92,122.3H91.7a0.78,0.78,0,0,0-.6.9,0.73,0.73,0,0,0,.7.6h0.3a0.78,0.78,0,0,0,.6-0.9A0.61,0.61,0,0,0,92,122.3Z" transform="translate(-17.8 -25.2)"/><path class="cls-1" d="M91,27.5h0.2a0.61,0.61,0,0,0,.7-0.6,0.78,0.78,0,0,0-.6-0.9H91.1a0.61,0.61,0,0,0-.7.6A0.87,0.87,0,0,0,91,27.5Z" transform="translate(-17.8 -25.2)"/><path class="cls-1" d="M94,28.2h0.3a0.73,0.73,0,0,0,.7-0.6,0.72,0.72,0,0,0-.5-0.9H94.2a0.73,0.73,0,0,0-.7.6A0.72,0.72,0,0,0,94,28.2Z" transform="translate(-17.8 -25.2)"/><path class="cls-1" d="M88.9,122.9H88.8a0.68,0.68,0,0,0-.6.8,0.73,0.73,0,0,0,.7.6h0.2a0.68,0.68,0,0,0,.6-0.8A0.76,0.76,0,0,0,88.9,122.9Z" transform="translate(-17.8 -25.2)"/><path class="cls-1" d="M98,120.6H97.8a0.83,0.83,0,0,0-.5,1,0.75,0.75,0,0,0,.7.5h0.3a0.83,0.83,0,0,0,.5-1A1,1,0,0,0,98,120.6Z" transform="translate(-17.8 -25.2)"/><path class="cls-1" d="M109.2,115a0.6,0.6,0,0,0-.4.1h-0.1a0.78,0.78,0,0,0-.2,1,0.71,0.71,0,0,0,.6.3,0.6,0.6,0,0,0,.4-0.1h0.1a0.78,0.78,0,0,0,.2-1A0.71,0.71,0,0,0,109.2,115Z" transform="translate(-17.8 -25.2)"/><path class="cls-1" d="M103.8,118.2a0.37,0.37,0,0,0-.3.1h0a0.69,0.69,0,0,0-.3,1,0.67,0.67,0,0,0,.7.4,0.37,0.37,0,0,0,.3-0.1h0.1a0.69,0.69,0,0,0,.3-1A1,1,0,0,0,103.8,118.2Z" transform="translate(-17.8 -25.2)"/><path class="cls-1" d="M101,119.5a0.37,0.37,0,0,0-.3.1h0a0.73,0.73,0,0,0-.4,1,0.75,0.75,0,0,0,.7.5,0.37,0.37,0,0,0,.3-0.1h0.1a0.73,0.73,0,0,0,.4-1A1.46,1.46,0,0,0,101,119.5Z" transform="translate(-17.8 -25.2)"/><path class="cls-1" d="M106.5,116.7a0.6,0.6,0,0,0-.4.1H106a0.71,0.71,0,0,0-.3,1,0.82,0.82,0,0,0,.6.4,0.6,0.6,0,0,0,.4-0.1h0.1a0.71,0.71,0,0,0,.3-1A0.49,0.49,0,0,0,106.5,116.7Z" transform="translate(-17.8 -25.2)"/><path class="cls-1" d="M110.7,36.2h0a1.06,1.06,0,0,0,.5.2,0.71,0.71,0,0,0,.6-0.3,0.68,0.68,0,0,0-.2-1l-0.1-.1a0.6,0.6,0,0,0-.4-0.1,0.71,0.71,0,0,0-.6.3,0.64,0.64,0,0,0,.2,1C110.6,36.1,110.6,36.2,110.7,36.2Z" transform="translate(-17.8 -25.2)"/><path class="cls-1" d="M125.9,55.1h0a0.71,0.71,0,0,0,.7.5,0.37,0.37,0,0,0,.3-0.1,0.82,0.82,0,0,0,.4-1V54.4a0.67,0.67,0,0,0-.7-0.4,0.37,0.37,0,0,0-.3.1A0.76,0.76,0,0,0,125.9,55.1Z" transform="translate(-17.8 -25.2)"/><path class="cls-1" d="M128.1,60.9h0a0.73,0.73,0,0,0,.7.6H129a0.72,0.72,0,0,0,.5-0.9V60.5a0.75,0.75,0,0,0-.7-0.5h-0.2A0.72,0.72,0,0,0,128.1,60.9Z" transform="translate(-17.8 -25.2)"/><path class="cls-1" d="M127.1,58h0a0.73,0.73,0,0,0,.7.6h0.3a0.7,0.7,0,0,0,.4-1V57.5a0.75,0.75,0,0,0-.7-0.5h-0.3A0.73,0.73,0,0,0,127.1,58Z" transform="translate(-17.8 -25.2)"/><path class="cls-1" d="M124.6,52.4h0a0.67,0.67,0,0,0,.7.4,0.37,0.37,0,0,0,.3-0.1,0.69,0.69,0,0,0,.3-1V51.6a0.67,0.67,0,0,0-.7-0.4,0.76,0.76,0,0,0-.4.1,0.89,0.89,0,0,0-.2,1.1h0Z" transform="translate(-17.8 -25.2)"/><path class="cls-1" d="M130.9,72.3h0a0.86,0.86,0,0,0-.8.8v0.1a0.68,0.68,0,0,0,.7.7h0a0.77,0.77,0,0,0,.7-0.8V73A0.56,0.56,0,0,0,130.9,72.3Z" transform="translate(-17.8 -25.2)"/><path class="cls-1" d="M130.6,69.1a0.77,0.77,0,0,0-.7.8h0V70a0.75,0.75,0,0,0,.7.7h0.1a0.77,0.77,0,0,0,.7-0.8V69.8a0.77,0.77,0,0,0-.8-0.7h0Z" transform="translate(-17.8 -25.2)"/><path class="cls-1" d="M123,49.7h0a0.75,0.75,0,0,0,.7.4,0.6,0.6,0,0,0,.4-0.1,0.62,0.62,0,0,0,.2-1V48.9a0.82,0.82,0,0,0-.6-0.4,0.6,0.6,0,0,0-.4.1,0.83,0.83,0,0,0-.3,1.1h0Z" transform="translate(-17.8 -25.2)"/><path class="cls-1" d="M130.1,66a0.78,0.78,0,0,0-.6.9V67a0.73,0.73,0,0,0,.7.6h0.1a0.78,0.78,0,0,0,.6-0.9V66.6a0.73,0.73,0,0,0-.7-0.6h-0.1Z" transform="translate(-17.8 -25.2)"/><path class="cls-1" d="M128.9,63.9h0a0.84,0.84,0,0,0,.7.7h0.2a0.78,0.78,0,0,0,.6-0.9V63.6a0.86,0.86,0,0,0-.7-0.6h-0.2A0.71,0.71,0,0,0,128.9,63.9Z" transform="translate(-17.8 -25.2)"/><path class="cls-1" d="M102.7,31.4h0a0.76,0.76,0,0,0,.4.1,1,1,0,0,0,.7-0.4,0.78,0.78,0,0,0-.3-1h-0.1a0.37,0.37,0,0,0-.3-0.1,1,1,0,0,0-.7.4A0.71,0.71,0,0,0,102.7,31.4Z" transform="translate(-17.8 -25.2)"/><path class="cls-1" d="M108.1,34.4h0a1.06,1.06,0,0,0,.5.2,0.71,0.71,0,0,0,.6-0.3,0.78,0.78,0,0,0-.2-1h-0.1a0.6,0.6,0,0,0-.4-0.1,0.71,0.71,0,0,0-.6.3C107.6,33.7,107.7,34.1,108.1,34.4Z" transform="translate(-17.8 -25.2)"/><path class="cls-1" d="M113,38.1h0a0.65,0.65,0,0,0,.5.2,0.86,0.86,0,0,0,.6-0.3,0.79,0.79,0,0,0-.1-1.1l-0.1-.1a0.76,0.76,0,0,0-.5-0.2,0.86,0.86,0,0,0-.6.3,1.28,1.28,0,0,0,.2,1.2h0Z" transform="translate(-17.8 -25.2)"/><path class="cls-1" d="M105.4,32.8h0a0.82,0.82,0,0,0,1.1-.3,0.69,0.69,0,0,0-.3-1h-0.1a0.48,0.48,0,0,0-.4-0.1,0.75,0.75,0,0,0-.7.4A1.28,1.28,0,0,0,105.4,32.8Z" transform="translate(-17.8 -25.2)"/><path class="cls-1" d="M121.3,47.1h0a0.75,0.75,0,0,0,.7.4,0.6,0.6,0,0,0,.4-0.1,0.78,0.78,0,0,0,.2-1V46.3A0.71,0.71,0,0,0,122,46a0.6,0.6,0,0,0-.4.1,0.71,0.71,0,0,0-.3,1h0Z" transform="translate(-17.8 -25.2)"/><path class="cls-1" d="M99.9,30.1h0a0.77,0.77,0,0,0,1.1-.4,0.73,0.73,0,0,0-.4-1h-0.1c-0.1,0-.2-0.1-0.3-0.1a0.75,0.75,0,0,0-.7.5A0.7,0.7,0,0,0,99.9,30.1Z" transform="translate(-17.8 -25.2)"/><path class="cls-1" d="M119.5,44.7h0a0.86,0.86,0,0,0,.6.3,1.06,1.06,0,0,0,.5-0.2,0.78,0.78,0,0,0,.1-1.1l-0.1-.1a0.71,0.71,0,0,0-.6-0.3,0.8,0.8,0,0,0-.5,1.4h0Z" transform="translate(-17.8 -25.2)"/><path class="cls-1" d="M115.4,40.2h0a0.72,0.72,0,0,0,1,0,0.78,0.78,0,0,0,0-1.1l-0.1-.1a0.72,0.72,0,0,0-1,0,0.82,0.82,0,0,0,.1,1.2h0Z" transform="translate(-17.8 -25.2)"/><path class="cls-1" d="M117.5,42.4a0.64,0.64,0,0,0,.6.2,0.76,0.76,0,0,0,.5-0.2,0.78,0.78,0,0,0,0-1.1l-0.1-.1a0.64,0.64,0,0,0-.6-0.2,0.76,0.76,0,0,0-.5.2,1.07,1.07,0,0,0,.1,1.2h0Z" transform="translate(-17.8 -25.2)"/><path class="cls-1" d="M118.6,106.8a0.86,0.86,0,0,0-.6.3h0a0.79,0.79,0,0,0,.1,1.1,0.76,0.76,0,0,0,.5.2,0.86,0.86,0,0,0,.6-0.3l0.1-.1a0.79,0.79,0,0,0-.1-1.1A1.49,1.49,0,0,0,118.6,106.8Z" transform="translate(-17.8 -25.2)"/><path class="cls-1" d="M122.4,101.8a0.71,0.71,0,0,0-.6.3h0a0.78,0.78,0,0,0,.2,1,0.6,0.6,0,0,0,.4.1,0.71,0.71,0,0,0,.6-0.3v-0.1a0.78,0.78,0,0,0-.2-1A0.53,0.53,0,0,1,122.4,101.8Z" transform="translate(-17.8 -25.2)"/><path class="cls-1" d="M126,96.5a0.37,0.37,0,0,0-.3-0.1,0.75,0.75,0,0,0-.7.4v0.1a0.78,0.78,0,0,0,.3,1,0.37,0.37,0,0,0,.3.1,0.75,0.75,0,0,0,.7-0.4V97.5A0.81,0.81,0,0,0,126,96.5Z" transform="translate(-17.8 -25.2)"/><path class="cls-1" d="M124.5,99.3a0.6,0.6,0,0,0-.4-0.1,0.55,0.55,0,0,0-.6.4v0.1a0.69,0.69,0,0,0,.3,1,0.6,0.6,0,0,0,.4.1,0.55,0.55,0,0,0,.6-0.4v-0.1A0.81,0.81,0,0,0,124.5,99.3Z" transform="translate(-17.8 -25.2)"/><path class="cls-1" d="M127.2,93.7c-0.1,0-.2-0.1-0.3-0.1a0.75,0.75,0,0,0-.7.5h0a0.73,0.73,0,0,0,.4,1c0.1,0,.2.1,0.3,0.1a0.75,0.75,0,0,0,.7-0.5V94.6A0.63,0.63,0,0,0,127.2,93.7Z" transform="translate(-17.8 -25.2)"/><path class="cls-1" d="M114.2,111.2a0.76,0.76,0,0,0-.5.2h0a0.9,0.9,0,0,0-.1,1.1,0.71,0.71,0,0,0,.6.3,0.76,0.76,0,0,0,.5-0.2l0.1-.1a0.9,0.9,0,0,0,.1-1.1A2.54,2.54,0,0,0,114.2,111.2Z" transform="translate(-17.8 -25.2)"/><path class="cls-1" d="M128.3,90.8H128a0.75,0.75,0,0,0-.7.5v0.1a0.88,0.88,0,0,0,.5,1h0.3a0.75,0.75,0,0,0,.7-0.5V91.8A0.78,0.78,0,0,0,128.3,90.8Z" transform="translate(-17.8 -25.2)"/><path class="cls-1" d="M111.7,113.2a1.06,1.06,0,0,0-.5.2h0a0.78,0.78,0,0,0-.1,1.1,0.71,0.71,0,0,0,.6.3,1.06,1.06,0,0,0,.5-0.2l0.1-.1a0.78,0.78,0,0,0,.1-1.1A1.45,1.45,0,0,0,111.7,113.2Z" transform="translate(-17.8 -25.2)"/><path class="cls-1" d="M116.4,109.1a0.76,0.76,0,0,0-.5.2h0a0.78,0.78,0,0,0,0,1.1,0.73,0.73,0,0,0,1,0l0.1-.1a0.78,0.78,0,0,0,0-1.1A1.27,1.27,0,0,0,116.4,109.1Z" transform="translate(-17.8 -25.2)"/><path class="cls-1" d="M120.6,104.4a0.86,0.86,0,0,0-.6.3v0.1h0a0.79,0.79,0,0,0,.1,1.1,0.76,0.76,0,0,0,.5.2,0.86,0.86,0,0,0,.6-0.3l0.1-.1a0.79,0.79,0,0,0-.1-1.1A1,1,0,0,0,120.6,104.4Z" transform="translate(-17.8 -25.2)"/><path class="cls-1" d="M130.5,81.6h-0.1a0.67,0.67,0,0,0-.7.6v0.1a0.78,0.78,0,0,0,.6.9h0.1a0.67,0.67,0,0,0,.7-0.6V82.5A0.78,0.78,0,0,0,130.5,81.6Z" transform="translate(-17.8 -25.2)"/><path class="cls-1" d="M129.2,87.8H129a0.75,0.75,0,0,0-.7.5h0v0.1a0.72,0.72,0,0,0,.5.9H129a0.75,0.75,0,0,0,.7-0.5V88.7A0.65,0.65,0,0,0,129.2,87.8Z" transform="translate(-17.8 -25.2)"/><path class="cls-1" d="M130.9,75.4h0a0.77,0.77,0,0,0-.8.7v0.1a0.77,0.77,0,0,0,.7.8h0a0.68,0.68,0,0,0,.7-0.7V76.2A0.57,0.57,0,0,0,130.9,75.4Z" transform="translate(-17.8 -25.2)"/><path class="cls-1" d="M130,84.7h-0.2a0.66,0.66,0,0,0-.7.6v0.1h0a0.78,0.78,0,0,0,.6.9h0.2a0.66,0.66,0,0,0,.7-0.6V85.6A0.87,0.87,0,0,0,130,84.7Z" transform="translate(-17.8 -25.2)"/><path class="cls-1" d="M130.8,78.5h0a0.71,0.71,0,0,0-.8.7h0a0.77,0.77,0,0,0,.7.8h0.1a0.68,0.68,0,0,0,.7-0.7V79.2A0.75,0.75,0,0,0,130.8,78.5Z" transform="translate(-17.8 -25.2)"/><path class="cls-1" d="M77.3,124.8h0Z" transform="translate(-17.8 -25.2)"/><path class="cls-1" d="M97.1,114.2a1.54,1.54,0,0,1-1.5-1.5v-8.5a28.82,28.82,0,0,0-1.1-7.8,1.46,1.46,0,1,1,2.8-.8,31.51,31.51,0,0,1,1.2,8.7v8.5A1.36,1.36,0,0,1,97.1,114.2Zm-58.8,0a1.54,1.54,0,0,1-1.5-1.5v-6.1a1.5,1.5,0,0,1,3,0v6.1A1.54,1.54,0,0,1,38.3,114.2Zm0.2-12H38.3a1.5,1.5,0,0,1-1.3-1.7A30.91,30.91,0,0,1,67.7,73.3a30.35,30.35,0,0,1,16.8,5,1.51,1.51,0,1,1-1.7,2.5,27.9,27.9,0,0,0-42.9,20.1A1.42,1.42,0,0,1,38.5,102.2ZM93.7,91.9a1.44,1.44,0,0,1-1.3-.8,25.8,25.8,0,0,0-5.1-6.8,1.48,1.48,0,1,1,2.1-2.1A31.92,31.92,0,0,1,95,89.7a1.49,1.49,0,0,1-.6,2A2.54,2.54,0,0,1,93.7,91.9Z" transform="translate(-17.8 -25.2)"/><g id="_Group_" data-name="&lt;Group&gt;"><path class="cls-1" d="M67.7,76A18.27,18.27,0,0,1,50.2,62.6a1.46,1.46,0,0,1,2.8-.8A15.39,15.39,0,0,0,67.7,73a15.1,15.1,0,1,0-8.3-27.7,1.51,1.51,0,0,1-1.7-2.5,17.79,17.79,0,0,1,10-3A18.1,18.1,0,0,1,67.7,76ZM51.1,57.8H51a1.46,1.46,0,0,1-1.3-1.6,18.38,18.38,0,0,1,3.4-9A1.5,1.5,0,0,1,55.5,49a14.65,14.65,0,0,0-2.8,7.5A1.71,1.71,0,0,1,51.1,57.8Z" transform="translate(-17.8 -25.2)"/></g></svg>