<svg id="Layer_1" data-name="Layer 1" xmlns="http://www.w3.org/2000/svg" viewBox="0 0 109.7 78.7"><defs><style>.cls-1{fill:#fff;}</style></defs><title>3w</title><path class="cls-1" d="M126.1,76.7H92.3a1.5,1.5,0,0,1,0-3h33.8A1.5,1.5,0,1,1,126.1,76.7Z" transform="translate(-20.1 -35.9)"/><path class="cls-1" d="M118.5,86a1.5,1.5,0,0,1-1.1-.4,1.45,1.45,0,0,1,0-2.1l8.2-8.2-8.2-8.2a1.48,1.48,0,0,1,2.1-2.1l10.3,10.3L119.5,85.6A1.53,1.53,0,0,1,118.5,86Z" transform="translate(-20.1 -35.9)"/><path class="cls-1" d="M94,55.4a1.45,1.45,0,0,1,0-2.1h0a1.45,1.45,0,0,1,2.1,0h0a1.45,1.45,0,0,1,0,2.1h0a1.5,1.5,0,0,1-1.1.4h0A1.43,1.43,0,0,1,94,55.4Zm3.2-3.2a1.45,1.45,0,0,1,0-2.1h0a1.45,1.45,0,0,1,2.1,0h0a1.45,1.45,0,0,1,0,2.1h0a1.5,1.5,0,0,1-1.1.4h0A1.43,1.43,0,0,1,97.2,52.2Zm3.2-3.2a1.45,1.45,0,0,1,0-2.1h0a1.45,1.45,0,0,1,2.1,0h0a1.45,1.45,0,0,1,0,2.1h0a1.5,1.5,0,0,1-1.1.4h0A1.1,1.1,0,0,1,100.4,49Zm3.2-3.1a1.45,1.45,0,0,1,0-2.1h0a1.45,1.45,0,0,1,2.1,0h0a1.45,1.45,0,0,1,0,2.1h0a1.5,1.5,0,0,1-1.1.4h0A2.11,2.11,0,0,1,103.6,45.9Zm3.2-3.2a1.45,1.45,0,0,1,0-2.1h0a1.45,1.45,0,0,1,2.1,0h0a1.45,1.45,0,0,1,0,2.1h0a1.5,1.5,0,0,1-1.1.4h0A1.16,1.16,0,0,1,106.8,42.7Z" transform="translate(-20.1 -35.9)"/><path class="cls-1" d="M112.1,51.9a1.54,1.54,0,0,1-1.5-1.5V38.9H99.1a1.5,1.5,0,0,1,0-3h14.6V50.5A1.62,1.62,0,0,1,112.1,51.9Z" transform="translate(-20.1 -35.9)"/><path class="cls-1" d="M111.4,113.9a1.5,1.5,0,0,1-1.1-.4l-10-10a1.48,1.48,0,0,1,2.1-2.1l10,10a1.45,1.45,0,0,1,0,2.1A2.11,2.11,0,0,1,111.4,113.9ZM97.1,99.6a1.5,1.5,0,0,1-1.1-.4L87.8,91a1.48,1.48,0,1,1,2.1-2.1l8.2,8.2a1.45,1.45,0,0,1,0,2.1A1.16,1.16,0,0,1,97.1,99.6Z" transform="translate(-20.1 -35.9)"/><path class="cls-1" d="M113.5,114.6H99a1.5,1.5,0,0,1,0-3h11.6V100a1.5,1.5,0,0,1,3,0v14.6h-0.1Z" transform="translate(-20.1 -35.9)"/><path class="cls-1" d="M49.7,75.2a1.54,1.54,0,0,1,1.5-1.5h0a1.54,1.54,0,0,1,1.5,1.5h0a1.54,1.54,0,0,1-1.5,1.5h0A1.54,1.54,0,0,1,49.7,75.2Zm-4.5,0a1.54,1.54,0,0,1,1.5-1.5h0a1.54,1.54,0,0,1,1.5,1.5h0a1.54,1.54,0,0,1-1.5,1.5h0A1.54,1.54,0,0,1,45.2,75.2Zm-4.5,0a1.54,1.54,0,0,1,1.5-1.5h0a1.54,1.54,0,0,1,1.5,1.5h0a1.54,1.54,0,0,1-1.5,1.5h0A1.54,1.54,0,0,1,40.7,75.2Zm-4.5,0a1.54,1.54,0,0,1,1.5-1.5h0a1.54,1.54,0,0,1,1.5,1.5h0a1.54,1.54,0,0,1-1.5,1.5h0A1.54,1.54,0,0,1,36.2,75.2Z" transform="translate(-20.1 -35.9)"/><path class="cls-1" d="M27.7,82.8a7.6,7.6,0,1,1,7.6-7.6A7.6,7.6,0,0,1,27.7,82.8Zm0-12.2a4.6,4.6,0,1,0,4.6,4.6A4.72,4.72,0,0,0,27.7,70.6Z" transform="translate(-20.1 -35.9)"/><path class="cls-1" d="M73.8,103.4l-0.7-.4c-0.8-.4-18.5-9.7-18.5-20.2v-14a1.5,1.5,0,0,1,3,0V82.9c0,6.9,11.1,14.4,16.2,17.2C78.9,97.3,90,89.8,90,82.9V50.8H69.7a1.5,1.5,0,0,1,0-3H92.9V82.9c0,10.5-17.7,19.8-18.5,20.2ZM56.1,64.3a1.54,1.54,0,0,1-1.5-1.5v-15h7.6a1.5,1.5,0,0,1,0,3H57.6v12A1.54,1.54,0,0,1,56.1,64.3Z" transform="translate(-20.1 -35.9)"/><path class="cls-1" d="M73.8,103.2a1.54,1.54,0,0,1-1.5-1.5V49.3a1.5,1.5,0,1,1,3,0v52.4A1.54,1.54,0,0,1,73.8,103.2Z" transform="translate(-20.1 -35.9)"/></svg>