<svg id="Layer_1" data-name="Layer 1" xmlns="http://www.w3.org/2000/svg" viewBox="0 0 64.4 79.1"><defs><style>.cls-1{fill:#e13f2b;}</style></defs><title>4r</title><path class="cls-1" d="M84.2,114.9h0a3.7,3.7,0,0,1-3-1.6,3.26,3.26,0,0,1-.4-1.4,4.07,4.07,0,0,1,.5-1.8,16.41,16.41,0,0,0,1.9-5.5c0-3.4-3.3-6.2-7.4-6.2a8.68,8.68,0,0,0-2.8.5,1.49,1.49,0,0,1-1-2.8,12.09,12.09,0,0,1,3.8-.6c5.7,0,10.4,4.1,10.4,9.2,0,2.4-1.9,6.1-2.2,6.9a0.37,0.37,0,0,0-.1.3,3.54,3.54,0,0,0,.6.1h19.7V95.6a1.5,1.5,0,0,1,3,0V115h-1.5c0-.1-21-0.1-21.5-0.1h0Zm-35.7,0H42.8v-6.4a1.5,1.5,0,0,1,3,0V112h22v-0.1c0,0.1-.1-0.1-0.2-0.3-0.5-1-2.2-4.5-2.2-6.9a8.21,8.21,0,0,1,1.2-4.3,1.53,1.53,0,1,1,2.6,1.6,5.6,5.6,0,0,0-.8,2.7c0,1.2,1,3.7,1.9,5.5a4.07,4.07,0,0,1,.5,1.8,2.3,2.3,0,0,1-.4,1.4,3.1,3.1,0,0,1-3,1.6Zm-4.2-11a1.54,1.54,0,0,1-1.5-1.5V93c0.2-2,1.4-3.3,3.1-3.3a3.92,3.92,0,0,1,1.8.4c1.4,0.6,4.3,1.8,5.8,1.8a7,7,0,0,0,0-14c-1.5,0-4.5,1.2-5.8,1.8a3.29,3.29,0,0,1-4.9-2.8V55.7l2-.1H64.7a3.35,3.35,0,0,0,1.8-2.3,1.27,1.27,0,0,0-.1-0.6l-0.2-.3a13.53,13.53,0,0,1-.9-2.2A1.46,1.46,0,0,1,68,49.1c0.5,1.2.9,2.1,1,2.3h0a4.49,4.49,0,0,1,.5,1.9c0,3-3.1,5.3-4.7,5.3h-19V76.7a0.76,0.76,0,0,0,.2.5l0.4-.2c0.8-.4,4.6-2.1,7.1-2.1a10,10,0,0,1,0,20c-2.5,0-6.4-1.8-7.1-2.1a1.34,1.34,0,0,0-.5-0.1,1.21,1.21,0,0,0-.1.5v9.3A1.39,1.39,0,0,1,44.3,103.9Zm52.1-9a10,10,0,0,1,0-20c2.5,0,6.3,1.8,7.1,2.1a1.34,1.34,0,0,0,.5.1,1,1,0,0,0,.1-0.4c0-.6-0.1-13.6-0.1-18.1H92.6a1.5,1.5,0,0,1,0-3h14.3v1.5S107,76,107,76.7a3.18,3.18,0,0,1-3.1,3.4,3.92,3.92,0,0,1-1.8-.4c-1.4-.6-4.3-1.8-5.8-1.8a7,7,0,0,0,0,14c1.5,0,4.5-1.2,5.8-1.8a1.42,1.42,0,0,1,.6-0.2,1.52,1.52,0,1,1,.9,2.9,0.35,0.35,0,0,0-.2.1C102.8,93.2,98.9,94.9,96.4,94.9ZM84.3,58.7c-3.1-.2-5.2-2.1-5.2-4.7a5.73,5.73,0,0,1,.6-2.5c0.8-1.6,2.1-4.7,2.1-6.1,0-3.6-3.3-6.4-7.4-6.4-3.6,0-6.7,2.2-7.3,5.3a1.65,1.65,0,0,1-1.8,1.2,1.58,1.58,0,0,1-1.2-1.8c0.9-4.5,5.2-7.8,10.2-7.8,5.7,0,10.4,4.2,10.4,9.4,0,2.6-2.1,7-2.4,7.5A2.66,2.66,0,0,0,82,54c0,1.4,1.8,1.6,2.3,1.7h2.3a1.5,1.5,0,0,1,0,3H84.3Z" transform="translate(-42.8 -35.9)"/></svg>