<svg xmlns="http://www.w3.org/2000/svg" width="285" height="285" viewBox="0 0 284.9 284.9"><path d="M277.5 135.9L144.5 2.9C142.6 1 140.4 0 137.9 0c-2.5 0-4.7 1-6.6 2.9l-14.3 14.3c-1.9 1.9-2.9 4.1-2.9 6.6 0 2.5 1 4.7 2.9 6.6l112.2 112.2L117.1 254.7c-1.9 1.9-2.9 4.1-2.9 6.6 0 2.5 1 4.7 2.9 6.6l14.3 14.3c1.9 1.9 4.1 2.9 6.6 2.9 2.5 0 4.7-1 6.6-2.9l133.1-133c1.9-1.9 2.9-4.1 2.9-6.6S279.4 137.8 277.5 135.9z"/><path d="M170.7 142.5c0-2.5-0.9-4.7-2.9-6.6L34.8 2.9C32.9 1 30.7 0 28.3 0s-4.7 1-6.6 2.9L7.4 17.1C5.5 19 4.6 21.2 4.6 23.7c0 2.5 1 4.7 2.9 6.6L119.6 142.5 7.4 254.7c-1.9 1.9-2.9 4.1-2.9 6.6 0 2.5 1 4.7 2.9 6.6l14.3 14.3c1.9 1.9 4.1 2.9 6.6 2.9s4.7-1 6.6-2.9l133-133C169.8 147.1 170.7 144.9 170.7 142.5z"/></svg>
