<svg xmlns="http://www.w3.org/2000/svg" width="285" height="285" viewBox="0 0 284.9 284.9"><path d="M165.3 142.5L277.5 30.3c1.9-1.9 2.8-4.1 2.8-6.6 0-2.5-1-4.7-2.8-6.6L263.2 2.9C261.3 1 259.1 0 256.7 0c-2.5 0-4.7 1-6.6 2.9L117.1 135.9c-1.9 1.9-2.9 4.1-2.9 6.6 0 2.5 1 4.7 2.9 6.6l133 133c1.9 1.9 4.1 2.9 6.6 2.9 2.5 0 4.7-0.9 6.6-2.9l14.3-14.3c1.9-1.9 2.9-4.1 2.9-6.6 0-2.5-0.9-4.7-2.9-6.6L165.3 142.5z"/><path d="M55.7 142.5L167.9 30.3c1.9-1.9 2.9-4.1 2.9-6.6 0-2.5-0.9-4.7-2.9-6.6L153.6 2.9C151.7 1 149.5 0 147 0c-2.5 0-4.7 1-6.6 2.9L7.4 135.9c-1.9 1.9-2.9 4.1-2.9 6.6 0 2.5 1 4.7 2.9 6.6l133 133c1.9 1.9 4.1 2.9 6.6 2.9 2.5 0 4.7-0.9 6.6-2.9l14.3-14.3c1.9-1.9 2.9-4.1 2.9-6.6 0-2.5-0.9-4.7-2.9-6.6L55.7 142.5z"/></svg>
