<?xml version="1.0" encoding="utf-8"?>
<!-- Generator: Adobe Illustrator 18.0.0, SVG Export Plug-In . SVG Version: 6.00 Build 0)  -->
<!DOCTYPE svg PUBLIC "-//W3C//DTD SVG 1.1//EN" "http://www.w3.org/Graphics/SVG/1.1/DTD/svg11.dtd">
<svg version="1.1" id="Layer_1" xmlns="http://www.w3.org/2000/svg" xmlns:xlink="http://www.w3.org/1999/xlink" x="0px" y="0px"
	 viewBox="0 0 35.1 30.9" enable-background="new 0 0 35.1 30.9" xml:space="preserve">
<g id="XMLID_206_" opacity="0.75">
	<path id="XMLID_225_" fill="none" stroke-width="1.1546" stroke-linecap="round" stroke-miterlimit="10" d="
		M0.6,9.4c3.6-5.7,9.7-8.8,17-8.8s13.3,3.1,17,8.8"/>
	<path id="XMLID_215_" fill="none" stroke-width="1.1546" stroke-linecap="round" stroke-miterlimit="10" d="
		M5.8,13.5c2.5-3.9,6.7-6.1,11.7-6.1s9.2,2.2,11.7,6.1"/>
	<path id="XMLID_214_" fill="none" stroke-width="1.0103" stroke-linecap="round" stroke-miterlimit="10" d="
		M10.7,17.6c1.5-2.3,3.9-3.6,6.9-3.6c2.9,0,5.4,1.3,6.9,3.6"/>
	<path id="XMLID_213_" d="M17.4,24.5c-1.6,0-2.8-1.2-2.8-2.8c0-1.6,1.2-2.8,2.8-2.8c1.6,0,2.8,1.2,2.8,2.8
		C20.2,23.2,18.9,24.5,17.4,24.5z"/>

		<line id="XMLID_212_" stroke-width="1.3595" stroke-linecap="round" stroke-miterlimit="10" x1="17.4" y1="30.2" x2="17.4" y2="24.5"/>
</g>
</svg>
