<?xml version="1.0" encoding="utf-8"?>
<svg version="1.1" id="Layer_1" xmlns="http://www.w3.org/2000/svg" xmlns:xlink="http://www.w3.org/1999/xlink" x="0px" y="0px"
	 viewBox="0 0 500 500" style="enable-background:new 0 0 500 500;" xml:space="preserve">
<g>
	<g>
		<polygon class="st0" points="262.1,356.2 228,305.7 193.7,356.2 150,356.2 203,279.4 153.1,206.6 197.1,206.6 228,252.8
			258.7,206.6 302.7,206.6 252.5,279.4 306.1,356.2 262.1,356.2 		"/>
		<path class="st0" d="M307,356.2V206.6h39.3v149.6H307L307,356.2z M302.9,167c0-13,10.8-23.2,23.5-23.2c13,0,23.5,10.2,23.5,23.2
			c0,13-10.5,23.5-23.5,23.5C313.8,190.5,302.9,180,302.9,167L302.9,167z"/>
	</g>
</g>
</svg>
